<?xml version="1.0" encoding="utf-8" standalone="no"?>
<!DOCTYPE svg PUBLIC "-//W3C//DTD SVG 1.1//EN"
  "http://www.w3.org/Graphics/SVG/1.1/DTD/svg11.dtd">
<svg xmlns:xlink="http://www.w3.org/1999/xlink" width="790.56pt" height="931.7575pt" viewBox="0 0 790.56 931.7575" xmlns="http://www.w3.org/2000/svg" version="1.1">
 <metadata>
  <rdf:RDF xmlns:dc="http://purl.org/dc/elements/1.1/" xmlns:cc="http://creativecommons.org/ns#" xmlns:rdf="http://www.w3.org/1999/02/22-rdf-syntax-ns#">
   <cc:Work>
    <dc:type rdf:resource="http://purl.org/dc/dcmitype/StillImage"/>
    <dc:date>2026-06-02T00:12:08.442060</dc:date>
    <dc:format>image/svg+xml</dc:format>
    <dc:creator>
     <cc:Agent>
      <dc:title>Matplotlib v3.10.8, https://matplotlib.org/</dc:title>
     </cc:Agent>
    </dc:creator>
   </cc:Work>
  </rdf:RDF>
 </metadata>
 <defs>
  <style type="text/css">*{stroke-linejoin: round; stroke-linecap: butt}</style>
 </defs>
 <g id="figure_1">
  <g id="patch_1">
   <path d="M 0 931.7575 
L 790.56 931.7575 
L 790.56 0 
L 0 0 
z
" style="fill: #ffffff"/>
  </g>
  <g id="axes_1">
   <g id="patch_2">
    <path d="M 87.098824 57.5875 
L 406.694118 57.5875 
Q 418.108235 57.5875 418.108235 68.7025 
L 418.108235 95.3785 
Q 418.108235 106.4935 406.694118 106.4935 
L 87.098824 106.4935 
Q 75.684706 106.4935 75.684706 95.3785 
L 75.684706 68.7025 
Q 75.684706 57.5875 87.098824 57.5875 
z
" clip-path="url(#pc29f4895b8)" style="fill: #f1efe8; stroke: #5f5e5a; stroke-linejoin: miter"/>
   </g>
   <g id="patch_3">
    <path d="M 87.098824 142.0615 
L 406.694118 142.0615 
Q 418.108235 142.0615 418.108235 153.1765 
L 418.108235 193.1905 
Q 418.108235 204.3055 406.694118 204.3055 
L 87.098824 204.3055 
Q 75.684706 204.3055 75.684706 193.1905 
L 75.684706 153.1765 
Q 75.684706 142.0615 87.098824 142.0615 
z
" clip-path="url(#pc29f4895b8)" style="fill: #f1efe8; stroke: #5f5e5a; stroke-linejoin: miter"/>
   </g>
   <g id="patch_4">
    <path d="M 87.098824 239.8735 
L 406.694118 239.8735 
Q 418.108235 239.8735 418.108235 250.9885 
L 418.108235 291.0025 
Q 418.108235 302.1175 406.694118 302.1175 
L 87.098824 302.1175 
Q 75.684706 302.1175 75.684706 291.0025 
L 75.684706 250.9885 
Q 75.684706 239.8735 87.098824 239.8735 
z
" clip-path="url(#pc29f4895b8)" style="fill: #f1efe8; stroke: #5f5e5a; stroke-linejoin: miter"/>
   </g>
   <g id="patch_5">
    <path d="M 87.098824 337.6855 
L 406.694118 337.6855 
Q 418.108235 337.6855 418.108235 348.8005 
L 418.108235 388.8145 
Q 418.108235 399.9295 406.694118 399.9295 
L 87.098824 399.9295 
Q 75.684706 399.9295 75.684706 388.8145 
L 75.684706 348.8005 
Q 75.684706 337.6855 87.098824 337.6855 
z
" clip-path="url(#pc29f4895b8)" style="fill: #f1efe8; stroke: #5f5e5a; stroke-linejoin: miter"/>
   </g>
   <g id="patch_6">
    <path d="M 87.098824 435.4975 
L 406.694118 435.4975 
Q 418.108235 435.4975 418.108235 446.6125 
L 418.108235 486.6265 
Q 418.108235 497.7415 406.694118 497.7415 
L 87.098824 497.7415 
Q 75.684706 497.7415 75.684706 486.6265 
L 75.684706 446.6125 
Q 75.684706 435.4975 87.098824 435.4975 
z
" clip-path="url(#pc29f4895b8)" style="fill: #f1efe8; stroke: #5f5e5a; stroke-linejoin: miter"/>
   </g>
   <g id="patch_7">
    <path d="M 87.098824 533.3095 
L 406.694118 533.3095 
Q 418.108235 533.3095 418.108235 544.4245 
L 418.108235 584.4385 
Q 418.108235 595.5535 406.694118 595.5535 
L 87.098824 595.5535 
Q 75.684706 595.5535 75.684706 584.4385 
L 75.684706 544.4245 
Q 75.684706 533.3095 87.098824 533.3095 
z
" clip-path="url(#pc29f4895b8)" style="fill: #f1efe8; stroke: #5f5e5a; stroke-linejoin: miter"/>
   </g>
   <g id="patch_8">
    <path d="M 87.098824 631.1215 
L 406.694118 631.1215 
Q 418.108235 631.1215 418.108235 642.2365 
L 418.108235 682.2505 
Q 418.108235 693.3655 406.694118 693.3655 
L 87.098824 693.3655 
Q 75.684706 693.3655 75.684706 682.2505 
L 75.684706 642.2365 
Q 75.684706 631.1215 87.098824 631.1215 
z
" clip-path="url(#pc29f4895b8)" style="fill: #f1efe8; stroke: #5f5e5a; stroke-linejoin: miter"/>
   </g>
   <g id="patch_9">
    <path d="M 87.098824 728.9335 
L 406.694118 728.9335 
Q 418.108235 728.9335 418.108235 740.0485 
L 418.108235 780.0625 
Q 418.108235 791.1775 406.694118 791.1775 
L 87.098824 791.1775 
Q 75.684706 791.1775 75.684706 780.0625 
L 75.684706 740.0485 
Q 75.684706 728.9335 87.098824 728.9335 
z
" clip-path="url(#pc29f4895b8)" style="fill: #f1efe8; stroke: #5f5e5a; stroke-linejoin: miter"/>
   </g>
   <g id="patch_10">
    <path d="M 87.098824 826.7455 
L 406.694118 826.7455 
Q 418.108235 826.7455 418.108235 837.8605 
L 418.108235 877.8745 
Q 418.108235 888.9895 406.694118 888.9895 
L 87.098824 888.9895 
Q 75.684706 888.9895 75.684706 877.8745 
L 75.684706 837.8605 
Q 75.684706 826.7455 87.098824 826.7455 
z
" clip-path="url(#pc29f4895b8)" style="fill: #e1f5ee; stroke: #0f6e56; stroke-linejoin: miter"/>
   </g>
   <g id="patch_11">
    <path d="M 246.896471 110.718611 
Q 246.896471 124.277915 246.896471 136.495578 
" clip-path="url(#pc29f4895b8)" style="fill: none; stroke: #5f5e5a; stroke-width: 1.2; stroke-linecap: round"/>
    <path d="M 249.696471 130.895578 
L 246.896471 136.495578 
L 244.096471 130.895578 
z
" clip-path="url(#pc29f4895b8)" style="fill: #5f5e5a; stroke: #5f5e5a; stroke-width: 1.2; stroke-linecap: round"/>
   </g>
   <g id="patch_12">
    <path d="M 246.896471 208.530611 
Q 246.896471 222.089915 246.896471 234.307578 
" clip-path="url(#pc29f4895b8)" style="fill: none; stroke: #5f5e5a; stroke-width: 1.2; stroke-linecap: round"/>
    <path d="M 249.696471 228.707578 
L 246.896471 234.307578 
L 244.096471 228.707578 
z
" clip-path="url(#pc29f4895b8)" style="fill: #5f5e5a; stroke: #5f5e5a; stroke-width: 1.2; stroke-linecap: round"/>
   </g>
   <g id="patch_13">
    <path d="M 246.896471 306.342611 
Q 246.896471 319.901915 246.896471 332.119578 
" clip-path="url(#pc29f4895b8)" style="fill: none; stroke: #5f5e5a; stroke-width: 1.2; stroke-linecap: round"/>
    <path d="M 249.696471 326.519578 
L 246.896471 332.119578 
L 244.096471 326.519578 
z
" clip-path="url(#pc29f4895b8)" style="fill: #5f5e5a; stroke: #5f5e5a; stroke-width: 1.2; stroke-linecap: round"/>
   </g>
   <g id="patch_14">
    <path d="M 246.896471 404.154611 
Q 246.896471 417.713915 246.896471 429.931578 
" clip-path="url(#pc29f4895b8)" style="fill: none; stroke: #5f5e5a; stroke-width: 1.2; stroke-linecap: round"/>
    <path d="M 249.696471 424.331578 
L 246.896471 429.931578 
L 244.096471 424.331578 
z
" clip-path="url(#pc29f4895b8)" style="fill: #5f5e5a; stroke: #5f5e5a; stroke-width: 1.2; stroke-linecap: round"/>
   </g>
   <g id="patch_15">
    <path d="M 246.896471 501.966611 
Q 246.896471 515.525915 246.896471 527.743578 
" clip-path="url(#pc29f4895b8)" style="fill: none; stroke: #5f5e5a; stroke-width: 1.2; stroke-linecap: round"/>
    <path d="M 249.696471 522.143578 
L 246.896471 527.743578 
L 244.096471 522.143578 
z
" clip-path="url(#pc29f4895b8)" style="fill: #5f5e5a; stroke: #5f5e5a; stroke-width: 1.2; stroke-linecap: round"/>
   </g>
   <g id="patch_16">
    <path d="M 246.896471 599.778611 
Q 246.896471 613.337915 246.896471 625.555578 
" clip-path="url(#pc29f4895b8)" style="fill: none; stroke: #5f5e5a; stroke-width: 1.2; stroke-linecap: round"/>
    <path d="M 249.696471 619.955578 
L 246.896471 625.555578 
L 244.096471 619.955578 
z
" clip-path="url(#pc29f4895b8)" style="fill: #5f5e5a; stroke: #5f5e5a; stroke-width: 1.2; stroke-linecap: round"/>
   </g>
   <g id="patch_17">
    <path d="M 246.896471 697.590611 
Q 246.896471 711.149915 246.896471 723.367578 
" clip-path="url(#pc29f4895b8)" style="fill: none; stroke: #5f5e5a; stroke-width: 1.2; stroke-linecap: round"/>
    <path d="M 249.696471 717.767578 
L 246.896471 723.367578 
L 244.096471 717.767578 
z
" clip-path="url(#pc29f4895b8)" style="fill: #5f5e5a; stroke: #5f5e5a; stroke-width: 1.2; stroke-linecap: round"/>
   </g>
   <g id="patch_18">
    <path d="M 246.896471 795.402611 
Q 246.896471 808.961915 246.896471 821.179578 
" clip-path="url(#pc29f4895b8)" style="fill: none; stroke: #5f5e5a; stroke-width: 1.2; stroke-linecap: round"/>
    <path d="M 249.696471 815.579578 
L 246.896471 821.179578 
L 244.096471 815.579578 
z
" clip-path="url(#pc29f4895b8)" style="fill: #5f5e5a; stroke: #5f5e5a; stroke-width: 1.2; stroke-linecap: round"/>
   </g>
   <g id="patch_19">
    <path d="M 420.106263 173.1835 
Q 463.76476 173.1835 506.193419 173.1835 
" clip-path="url(#pc29f4895b8)" style="fill: none; stroke: #aa3333; stroke-width: 1.1; stroke-linecap: round"/>
    <path d="M 501.393419 170.7835 
L 506.193419 173.1835 
L 501.393419 175.5835 
z
" clip-path="url(#pc29f4895b8)" style="fill: #aa3333; stroke: #aa3333; stroke-width: 1.1; stroke-linecap: round"/>
   </g>
   <g id="patch_20">
    <path d="M 520.835294 146.5075 
L 726.289412 146.5075 
Q 737.703529 146.5075 737.703529 157.6225 
L 737.703529 188.7445 
Q 737.703529 199.8595 726.289412 199.8595 
L 520.835294 199.8595 
Q 509.421176 199.8595 509.421176 188.7445 
L 509.421176 157.6225 
Q 509.421176 146.5075 520.835294 146.5075 
z
" clip-path="url(#pc29f4895b8)" style="fill: #fcebeb; stroke: #a32d2d; stroke-linejoin: miter"/>
   </g>
   <g id="patch_21">
    <path d="M 420.106263 270.9955 
Q 463.76476 270.9955 506.193419 270.9955 
" clip-path="url(#pc29f4895b8)" style="fill: none; stroke: #aa3333; stroke-width: 1.1; stroke-linecap: round"/>
    <path d="M 501.393419 268.5955 
L 506.193419 270.9955 
L 501.393419 273.3955 
z
" clip-path="url(#pc29f4895b8)" style="fill: #aa3333; stroke: #aa3333; stroke-width: 1.1; stroke-linecap: round"/>
   </g>
   <g id="patch_22">
    <path d="M 520.835294 244.3195 
L 726.289412 244.3195 
Q 737.703529 244.3195 737.703529 255.4345 
L 737.703529 286.5565 
Q 737.703529 297.6715 726.289412 297.6715 
L 520.835294 297.6715 
Q 509.421176 297.6715 509.421176 286.5565 
L 509.421176 255.4345 
Q 509.421176 244.3195 520.835294 244.3195 
z
" clip-path="url(#pc29f4895b8)" style="fill: #fcebeb; stroke: #a32d2d; stroke-linejoin: miter"/>
   </g>
   <g id="patch_23">
    <path d="M 420.106263 368.8075 
Q 463.76476 368.8075 506.193419 368.8075 
" clip-path="url(#pc29f4895b8)" style="fill: none; stroke: #aa3333; stroke-width: 1.1; stroke-linecap: round"/>
    <path d="M 501.393419 366.4075 
L 506.193419 368.8075 
L 501.393419 371.2075 
z
" clip-path="url(#pc29f4895b8)" style="fill: #aa3333; stroke: #aa3333; stroke-width: 1.1; stroke-linecap: round"/>
   </g>
   <g id="patch_24">
    <path d="M 520.835294 342.1315 
L 726.289412 342.1315 
Q 737.703529 342.1315 737.703529 353.2465 
L 737.703529 384.3685 
Q 737.703529 395.4835 726.289412 395.4835 
L 520.835294 395.4835 
Q 509.421176 395.4835 509.421176 384.3685 
L 509.421176 353.2465 
Q 509.421176 342.1315 520.835294 342.1315 
z
" clip-path="url(#pc29f4895b8)" style="fill: #fcebeb; stroke: #a32d2d; stroke-linejoin: miter"/>
   </g>
   <g id="patch_25">
    <path d="M 420.106263 564.4315 
Q 463.76476 564.4315 506.193419 564.4315 
" clip-path="url(#pc29f4895b8)" style="fill: none; stroke: #aa3333; stroke-width: 1.1; stroke-linecap: round"/>
    <path d="M 501.393419 562.0315 
L 506.193419 564.4315 
L 501.393419 566.8315 
z
" clip-path="url(#pc29f4895b8)" style="fill: #aa3333; stroke: #aa3333; stroke-width: 1.1; stroke-linecap: round"/>
   </g>
   <g id="patch_26">
    <path d="M 520.835294 537.7555 
L 726.289412 537.7555 
Q 737.703529 537.7555 737.703529 548.8705 
L 737.703529 579.9925 
Q 737.703529 591.1075 726.289412 591.1075 
L 520.835294 591.1075 
Q 509.421176 591.1075 509.421176 579.9925 
L 509.421176 548.8705 
Q 509.421176 537.7555 520.835294 537.7555 
z
" clip-path="url(#pc29f4895b8)" style="fill: #fcebeb; stroke: #a32d2d; stroke-linejoin: miter"/>
   </g>
   <g id="patch_27">
    <path d="M 420.106263 662.2435 
Q 463.76476 662.2435 506.193419 662.2435 
" clip-path="url(#pc29f4895b8)" style="fill: none; stroke: #aa3333; stroke-width: 1.1; stroke-linecap: round"/>
    <path d="M 501.393419 659.8435 
L 506.193419 662.2435 
L 501.393419 664.6435 
z
" clip-path="url(#pc29f4895b8)" style="fill: #aa3333; stroke: #aa3333; stroke-width: 1.1; stroke-linecap: round"/>
   </g>
   <g id="patch_28">
    <path d="M 520.835294 635.5675 
L 726.289412 635.5675 
Q 737.703529 635.5675 737.703529 646.6825 
L 737.703529 677.8045 
Q 737.703529 688.9195 726.289412 688.9195 
L 520.835294 688.9195 
Q 509.421176 688.9195 509.421176 677.8045 
L 509.421176 646.6825 
Q 509.421176 635.5675 520.835294 635.5675 
z
" clip-path="url(#pc29f4895b8)" style="fill: #fcebeb; stroke: #a32d2d; stroke-linejoin: miter"/>
   </g>
   <g id="patch_29">
    <path d="M 420.106263 760.0555 
Q 463.76476 760.0555 506.193419 760.0555 
" clip-path="url(#pc29f4895b8)" style="fill: none; stroke: #aa3333; stroke-width: 1.1; stroke-linecap: round"/>
    <path d="M 501.393419 757.6555 
L 506.193419 760.0555 
L 501.393419 762.4555 
z
" clip-path="url(#pc29f4895b8)" style="fill: #aa3333; stroke: #aa3333; stroke-width: 1.1; stroke-linecap: round"/>
   </g>
   <g id="patch_30">
    <path d="M 520.835294 733.3795 
L 726.289412 733.3795 
Q 737.703529 733.3795 737.703529 744.4945 
L 737.703529 775.6165 
Q 737.703529 786.7315 726.289412 786.7315 
L 520.835294 786.7315 
Q 509.421176 786.7315 509.421176 775.6165 
L 509.421176 744.4945 
Q 509.421176 733.3795 520.835294 733.3795 
z
" clip-path="url(#pc29f4895b8)" style="fill: #fcebeb; stroke: #a32d2d; stroke-linejoin: miter"/>
   </g>
   <g id="text_1">
    <!-- Bearer token arrives -->
    <g style="fill: #2c2c2a" transform="translate(180.700064 85.627687) scale(0.13 -0.13)">
     <defs>
      <path id="DejaVuSans-42" d="M 1259 2228 
L 1259 519 
L 2272 519 
Q 2781 519 3026 730 
Q 3272 941 3272 1375 
Q 3272 1813 3026 2020 
Q 2781 2228 2272 2228 
L 1259 2228 
z
M 1259 4147 
L 1259 2741 
L 2194 2741 
Q 2656 2741 2882 2914 
Q 3109 3088 3109 3444 
Q 3109 3797 2882 3972 
Q 2656 4147 2194 4147 
L 1259 4147 
z
M 628 4666 
L 2241 4666 
Q 2963 4666 3353 4366 
Q 3744 4066 3744 3513 
Q 3744 3084 3544 2831 
Q 3344 2578 2956 2516 
Q 3422 2416 3680 2098 
Q 3938 1781 3938 1306 
Q 3938 681 3513 340 
Q 3088 0 2303 0 
L 628 0 
L 628 4666 
z
" transform="scale(0.015625)"/>
      <path id="DejaVuSans-65" d="M 3597 1894 
L 3597 1613 
L 953 1613 
Q 991 1019 1311 708 
Q 1631 397 2203 397 
Q 2534 397 2845 478 
Q 3156 559 3463 722 
L 3463 178 
Q 3153 47 2828 -22 
Q 2503 -91 2169 -91 
Q 1331 -91 842 396 
Q 353 884 353 1716 
Q 353 2575 817 3079 
Q 1281 3584 2069 3584 
Q 2775 3584 3186 3129 
Q 3597 2675 3597 1894 
z
M 3022 2063 
Q 3016 2534 2758 2815 
Q 2500 3097 2075 3097 
Q 1594 3097 1305 2825 
Q 1016 2553 972 2059 
L 3022 2063 
z
" transform="scale(0.015625)"/>
      <path id="DejaVuSans-61" d="M 2194 1759 
Q 1497 1759 1228 1600 
Q 959 1441 959 1056 
Q 959 750 1161 570 
Q 1363 391 1709 391 
Q 2188 391 2477 730 
Q 2766 1069 2766 1631 
L 2766 1759 
L 2194 1759 
z
M 3341 1997 
L 3341 0 
L 2766 0 
L 2766 531 
Q 2569 213 2275 61 
Q 1981 -91 1556 -91 
Q 1019 -91 701 211 
Q 384 513 384 1019 
Q 384 1609 779 1909 
Q 1175 2209 1959 2209 
L 2766 2209 
L 2766 2266 
Q 2766 2663 2505 2880 
Q 2244 3097 1772 3097 
Q 1472 3097 1187 3025 
Q 903 2953 641 2809 
L 641 3341 
Q 956 3463 1253 3523 
Q 1550 3584 1831 3584 
Q 2591 3584 2966 3190 
Q 3341 2797 3341 1997 
z
" transform="scale(0.015625)"/>
      <path id="DejaVuSans-72" d="M 2631 2963 
Q 2534 3019 2420 3045 
Q 2306 3072 2169 3072 
Q 1681 3072 1420 2755 
Q 1159 2438 1159 1844 
L 1159 0 
L 581 0 
L 581 3500 
L 1159 3500 
L 1159 2956 
Q 1341 3275 1631 3429 
Q 1922 3584 2338 3584 
Q 2397 3584 2469 3576 
Q 2541 3569 2628 3553 
L 2631 2963 
z
" transform="scale(0.015625)"/>
      <path id="DejaVuSans-20" transform="scale(0.015625)"/>
      <path id="DejaVuSans-74" d="M 1172 4494 
L 1172 3500 
L 2356 3500 
L 2356 3053 
L 1172 3053 
L 1172 1153 
Q 1172 725 1289 603 
Q 1406 481 1766 481 
L 2356 481 
L 2356 0 
L 1766 0 
Q 1100 0 847 248 
Q 594 497 594 1153 
L 594 3053 
L 172 3053 
L 172 3500 
L 594 3500 
L 594 4494 
L 1172 4494 
z
" transform="scale(0.015625)"/>
      <path id="DejaVuSans-6f" d="M 1959 3097 
Q 1497 3097 1228 2736 
Q 959 2375 959 1747 
Q 959 1119 1226 758 
Q 1494 397 1959 397 
Q 2419 397 2687 759 
Q 2956 1122 2956 1747 
Q 2956 2369 2687 2733 
Q 2419 3097 1959 3097 
z
M 1959 3584 
Q 2709 3584 3137 3096 
Q 3566 2609 3566 1747 
Q 3566 888 3137 398 
Q 2709 -91 1959 -91 
Q 1206 -91 779 398 
Q 353 888 353 1747 
Q 353 2609 779 3096 
Q 1206 3584 1959 3584 
z
" transform="scale(0.015625)"/>
      <path id="DejaVuSans-6b" d="M 581 4863 
L 1159 4863 
L 1159 1991 
L 2875 3500 
L 3609 3500 
L 1753 1863 
L 3688 0 
L 2938 0 
L 1159 1709 
L 1159 0 
L 581 0 
L 581 4863 
z
" transform="scale(0.015625)"/>
      <path id="DejaVuSans-6e" d="M 3513 2113 
L 3513 0 
L 2938 0 
L 2938 2094 
Q 2938 2591 2744 2837 
Q 2550 3084 2163 3084 
Q 1697 3084 1428 2787 
Q 1159 2491 1159 1978 
L 1159 0 
L 581 0 
L 581 3500 
L 1159 3500 
L 1159 2956 
Q 1366 3272 1645 3428 
Q 1925 3584 2291 3584 
Q 2894 3584 3203 3211 
Q 3513 2838 3513 2113 
z
" transform="scale(0.015625)"/>
      <path id="DejaVuSans-69" d="M 603 3500 
L 1178 3500 
L 1178 0 
L 603 0 
L 603 3500 
z
M 603 4863 
L 1178 4863 
L 1178 4134 
L 603 4134 
L 603 4863 
z
" transform="scale(0.015625)"/>
      <path id="DejaVuSans-76" d="M 191 3500 
L 800 3500 
L 1894 563 
L 2988 3500 
L 3597 3500 
L 2284 0 
L 1503 0 
L 191 3500 
z
" transform="scale(0.015625)"/>
      <path id="DejaVuSans-73" d="M 2834 3397 
L 2834 2853 
Q 2591 2978 2328 3040 
Q 2066 3103 1784 3103 
Q 1356 3103 1142 2972 
Q 928 2841 928 2578 
Q 928 2378 1081 2264 
Q 1234 2150 1697 2047 
L 1894 2003 
Q 2506 1872 2764 1633 
Q 3022 1394 3022 966 
Q 3022 478 2636 193 
Q 2250 -91 1575 -91 
Q 1294 -91 989 -36 
Q 684 19 347 128 
L 347 722 
Q 666 556 975 473 
Q 1284 391 1588 391 
Q 1994 391 2212 530 
Q 2431 669 2431 922 
Q 2431 1156 2273 1281 
Q 2116 1406 1581 1522 
L 1381 1569 
Q 847 1681 609 1914 
Q 372 2147 372 2553 
Q 372 3047 722 3315 
Q 1072 3584 1716 3584 
Q 2034 3584 2315 3537 
Q 2597 3491 2834 3397 
z
" transform="scale(0.015625)"/>
     </defs>
     <use xlink:href="#DejaVuSans-42"/>
     <use xlink:href="#DejaVuSans-65" transform="translate(68.603516 0)"/>
     <use xlink:href="#DejaVuSans-61" transform="translate(130.126953 0)"/>
     <use xlink:href="#DejaVuSans-72" transform="translate(191.40625 0)"/>
     <use xlink:href="#DejaVuSans-65" transform="translate(230.269531 0)"/>
     <use xlink:href="#DejaVuSans-72" transform="translate(291.792969 0)"/>
     <use xlink:href="#DejaVuSans-20" transform="translate(332.90625 0)"/>
     <use xlink:href="#DejaVuSans-74" transform="translate(364.693359 0)"/>
     <use xlink:href="#DejaVuSans-6f" transform="translate(403.902344 0)"/>
     <use xlink:href="#DejaVuSans-6b" transform="translate(465.083984 0)"/>
     <use xlink:href="#DejaVuSans-65" transform="translate(519.369141 0)"/>
     <use xlink:href="#DejaVuSans-6e" transform="translate(580.892578 0)"/>
     <use xlink:href="#DejaVuSans-20" transform="translate(644.271484 0)"/>
     <use xlink:href="#DejaVuSans-61" transform="translate(676.058594 0)"/>
     <use xlink:href="#DejaVuSans-72" transform="translate(737.337891 0)"/>
     <use xlink:href="#DejaVuSans-72" transform="translate(776.701172 0)"/>
     <use xlink:href="#DejaVuSans-69" transform="translate(817.814453 0)"/>
     <use xlink:href="#DejaVuSans-76" transform="translate(845.597656 0)"/>
     <use xlink:href="#DejaVuSans-65" transform="translate(904.777344 0)"/>
     <use xlink:href="#DejaVuSans-73" transform="translate(966.300781 0)"/>
    </g>
   </g>
   <g id="text_2">
    <!-- Extract &amp; parse -->
    <g style="fill: #2c2c2a" transform="translate(196.248267 169.301407) scale(0.13 -0.13)">
     <defs>
      <path id="DejaVuSans-45" d="M 628 4666 
L 3578 4666 
L 3578 4134 
L 1259 4134 
L 1259 2753 
L 3481 2753 
L 3481 2222 
L 1259 2222 
L 1259 531 
L 3634 531 
L 3634 0 
L 628 0 
L 628 4666 
z
" transform="scale(0.015625)"/>
      <path id="DejaVuSans-78" d="M 3513 3500 
L 2247 1797 
L 3578 0 
L 2900 0 
L 1881 1375 
L 863 0 
L 184 0 
L 1544 1831 
L 300 3500 
L 978 3500 
L 1906 2253 
L 2834 3500 
L 3513 3500 
z
" transform="scale(0.015625)"/>
      <path id="DejaVuSans-63" d="M 3122 3366 
L 3122 2828 
Q 2878 2963 2633 3030 
Q 2388 3097 2138 3097 
Q 1578 3097 1268 2742 
Q 959 2388 959 1747 
Q 959 1106 1268 751 
Q 1578 397 2138 397 
Q 2388 397 2633 464 
Q 2878 531 3122 666 
L 3122 134 
Q 2881 22 2623 -34 
Q 2366 -91 2075 -91 
Q 1284 -91 818 406 
Q 353 903 353 1747 
Q 353 2603 823 3093 
Q 1294 3584 2113 3584 
Q 2378 3584 2631 3529 
Q 2884 3475 3122 3366 
z
" transform="scale(0.015625)"/>
      <path id="DejaVuSans-26" d="M 1556 2509 
Q 1272 2256 1139 2004 
Q 1006 1753 1006 1478 
Q 1006 1022 1337 719 
Q 1669 416 2169 416 
Q 2466 416 2725 514 
Q 2984 613 3213 813 
L 1556 2509 
z
M 1997 2859 
L 3584 1234 
Q 3769 1513 3872 1830 
Q 3975 2147 3994 2503 
L 4575 2503 
Q 4538 2091 4375 1687 
Q 4213 1284 3922 891 
L 4794 0 
L 4006 0 
L 3559 459 
Q 3234 181 2878 45 
Q 2522 -91 2113 -91 
Q 1359 -91 881 339 
Q 403 769 403 1441 
Q 403 1841 612 2192 
Q 822 2544 1241 2853 
Q 1091 3050 1012 3245 
Q 934 3441 934 3628 
Q 934 4134 1281 4442 
Q 1628 4750 2203 4750 
Q 2463 4750 2720 4694 
Q 2978 4638 3244 4525 
L 3244 3956 
Q 2972 4103 2725 4179 
Q 2478 4256 2266 4256 
Q 1938 4256 1733 4082 
Q 1528 3909 1528 3634 
Q 1528 3475 1620 3314 
Q 1713 3153 1997 2859 
z
" transform="scale(0.015625)"/>
      <path id="DejaVuSans-70" d="M 1159 525 
L 1159 -1331 
L 581 -1331 
L 581 3500 
L 1159 3500 
L 1159 2969 
Q 1341 3281 1617 3432 
Q 1894 3584 2278 3584 
Q 2916 3584 3314 3078 
Q 3713 2572 3713 1747 
Q 3713 922 3314 415 
Q 2916 -91 2278 -91 
Q 1894 -91 1617 61 
Q 1341 213 1159 525 
z
M 3116 1747 
Q 3116 2381 2855 2742 
Q 2594 3103 2138 3103 
Q 1681 3103 1420 2742 
Q 1159 2381 1159 1747 
Q 1159 1113 1420 752 
Q 1681 391 2138 391 
Q 2594 391 2855 752 
Q 3116 1113 3116 1747 
z
" transform="scale(0.015625)"/>
     </defs>
     <use xlink:href="#DejaVuSans-45"/>
     <use xlink:href="#DejaVuSans-78" transform="translate(63.183594 0)"/>
     <use xlink:href="#DejaVuSans-74" transform="translate(122.363281 0)"/>
     <use xlink:href="#DejaVuSans-72" transform="translate(161.572266 0)"/>
     <use xlink:href="#DejaVuSans-61" transform="translate(202.685547 0)"/>
     <use xlink:href="#DejaVuSans-63" transform="translate(263.964844 0)"/>
     <use xlink:href="#DejaVuSans-74" transform="translate(318.945312 0)"/>
     <use xlink:href="#DejaVuSans-20" transform="translate(358.154297 0)"/>
     <use xlink:href="#DejaVuSans-26" transform="translate(389.941406 0)"/>
     <use xlink:href="#DejaVuSans-20" transform="translate(467.919922 0)"/>
     <use xlink:href="#DejaVuSans-70" transform="translate(499.707031 0)"/>
     <use xlink:href="#DejaVuSans-61" transform="translate(563.183594 0)"/>
     <use xlink:href="#DejaVuSans-72" transform="translate(624.462891 0)"/>
     <use xlink:href="#DejaVuSans-73" transform="translate(665.576172 0)"/>
     <use xlink:href="#DejaVuSans-65" transform="translate(717.675781 0)"/>
    </g>
   </g>
   <g id="text_3">
    <!-- Authorization: Bearer -->
    <g style="fill: #2c2c2a" transform="translate(190.819088 188.529644) scale(0.105 -0.105)">
     <defs>
      <path id="DejaVuSans-41" d="M 2188 4044 
L 1331 1722 
L 3047 1722 
L 2188 4044 
z
M 1831 4666 
L 2547 4666 
L 4325 0 
L 3669 0 
L 3244 1197 
L 1141 1197 
L 716 0 
L 50 0 
L 1831 4666 
z
" transform="scale(0.015625)"/>
      <path id="DejaVuSans-75" d="M 544 1381 
L 544 3500 
L 1119 3500 
L 1119 1403 
Q 1119 906 1312 657 
Q 1506 409 1894 409 
Q 2359 409 2629 706 
Q 2900 1003 2900 1516 
L 2900 3500 
L 3475 3500 
L 3475 0 
L 2900 0 
L 2900 538 
Q 2691 219 2414 64 
Q 2138 -91 1772 -91 
Q 1169 -91 856 284 
Q 544 659 544 1381 
z
M 1991 3584 
L 1991 3584 
z
" transform="scale(0.015625)"/>
      <path id="DejaVuSans-68" d="M 3513 2113 
L 3513 0 
L 2938 0 
L 2938 2094 
Q 2938 2591 2744 2837 
Q 2550 3084 2163 3084 
Q 1697 3084 1428 2787 
Q 1159 2491 1159 1978 
L 1159 0 
L 581 0 
L 581 4863 
L 1159 4863 
L 1159 2956 
Q 1366 3272 1645 3428 
Q 1925 3584 2291 3584 
Q 2894 3584 3203 3211 
Q 3513 2838 3513 2113 
z
" transform="scale(0.015625)"/>
      <path id="DejaVuSans-7a" d="M 353 3500 
L 3084 3500 
L 3084 2975 
L 922 459 
L 3084 459 
L 3084 0 
L 275 0 
L 275 525 
L 2438 3041 
L 353 3041 
L 353 3500 
z
" transform="scale(0.015625)"/>
      <path id="DejaVuSans-3a" d="M 750 794 
L 1409 794 
L 1409 0 
L 750 0 
L 750 794 
z
M 750 3309 
L 1409 3309 
L 1409 2516 
L 750 2516 
L 750 3309 
z
" transform="scale(0.015625)"/>
     </defs>
     <use xlink:href="#DejaVuSans-41"/>
     <use xlink:href="#DejaVuSans-75" transform="translate(68.408203 0)"/>
     <use xlink:href="#DejaVuSans-74" transform="translate(131.787109 0)"/>
     <use xlink:href="#DejaVuSans-68" transform="translate(170.996094 0)"/>
     <use xlink:href="#DejaVuSans-6f" transform="translate(234.375 0)"/>
     <use xlink:href="#DejaVuSans-72" transform="translate(295.556641 0)"/>
     <use xlink:href="#DejaVuSans-69" transform="translate(336.669922 0)"/>
     <use xlink:href="#DejaVuSans-7a" transform="translate(364.453125 0)"/>
     <use xlink:href="#DejaVuSans-61" transform="translate(416.943359 0)"/>
     <use xlink:href="#DejaVuSans-74" transform="translate(478.222656 0)"/>
     <use xlink:href="#DejaVuSans-69" transform="translate(517.431641 0)"/>
     <use xlink:href="#DejaVuSans-6f" transform="translate(545.214844 0)"/>
     <use xlink:href="#DejaVuSans-6e" transform="translate(606.396484 0)"/>
     <use xlink:href="#DejaVuSans-3a" transform="translate(669.775391 0)"/>
     <use xlink:href="#DejaVuSans-20" transform="translate(703.466797 0)"/>
     <use xlink:href="#DejaVuSans-42" transform="translate(735.253906 0)"/>
     <use xlink:href="#DejaVuSans-65" transform="translate(803.857422 0)"/>
     <use xlink:href="#DejaVuSans-61" transform="translate(865.380859 0)"/>
     <use xlink:href="#DejaVuSans-72" transform="translate(926.660156 0)"/>
     <use xlink:href="#DejaVuSans-65" transform="translate(965.523438 0)"/>
     <use xlink:href="#DejaVuSans-72" transform="translate(1027.046875 0)"/>
    </g>
   </g>
   <g id="text_4">
    <!-- Verify signature &amp; claims -->
    <g style="fill: #2c2c2a" transform="translate(165.688111 267.113407) scale(0.13 -0.13)">
     <defs>
      <path id="DejaVuSans-56" d="M 1831 0 
L 50 4666 
L 709 4666 
L 2188 738 
L 3669 4666 
L 4325 4666 
L 2547 0 
L 1831 0 
z
" transform="scale(0.015625)"/>
      <path id="DejaVuSans-66" d="M 2375 4863 
L 2375 4384 
L 1825 4384 
Q 1516 4384 1395 4259 
Q 1275 4134 1275 3809 
L 1275 3500 
L 2222 3500 
L 2222 3053 
L 1275 3053 
L 1275 0 
L 697 0 
L 697 3053 
L 147 3053 
L 147 3500 
L 697 3500 
L 697 3744 
Q 697 4328 969 4595 
Q 1241 4863 1831 4863 
L 2375 4863 
z
" transform="scale(0.015625)"/>
      <path id="DejaVuSans-79" d="M 2059 -325 
Q 1816 -950 1584 -1140 
Q 1353 -1331 966 -1331 
L 506 -1331 
L 506 -850 
L 844 -850 
Q 1081 -850 1212 -737 
Q 1344 -625 1503 -206 
L 1606 56 
L 191 3500 
L 800 3500 
L 1894 763 
L 2988 3500 
L 3597 3500 
L 2059 -325 
z
" transform="scale(0.015625)"/>
      <path id="DejaVuSans-67" d="M 2906 1791 
Q 2906 2416 2648 2759 
Q 2391 3103 1925 3103 
Q 1463 3103 1205 2759 
Q 947 2416 947 1791 
Q 947 1169 1205 825 
Q 1463 481 1925 481 
Q 2391 481 2648 825 
Q 2906 1169 2906 1791 
z
M 3481 434 
Q 3481 -459 3084 -895 
Q 2688 -1331 1869 -1331 
Q 1566 -1331 1297 -1286 
Q 1028 -1241 775 -1147 
L 775 -588 
Q 1028 -725 1275 -790 
Q 1522 -856 1778 -856 
Q 2344 -856 2625 -561 
Q 2906 -266 2906 331 
L 2906 616 
Q 2728 306 2450 153 
Q 2172 0 1784 0 
Q 1141 0 747 490 
Q 353 981 353 1791 
Q 353 2603 747 3093 
Q 1141 3584 1784 3584 
Q 2172 3584 2450 3431 
Q 2728 3278 2906 2969 
L 2906 3500 
L 3481 3500 
L 3481 434 
z
" transform="scale(0.015625)"/>
      <path id="DejaVuSans-6c" d="M 603 4863 
L 1178 4863 
L 1178 0 
L 603 0 
L 603 4863 
z
" transform="scale(0.015625)"/>
      <path id="DejaVuSans-6d" d="M 3328 2828 
Q 3544 3216 3844 3400 
Q 4144 3584 4550 3584 
Q 5097 3584 5394 3201 
Q 5691 2819 5691 2113 
L 5691 0 
L 5113 0 
L 5113 2094 
Q 5113 2597 4934 2840 
Q 4756 3084 4391 3084 
Q 3944 3084 3684 2787 
Q 3425 2491 3425 1978 
L 3425 0 
L 2847 0 
L 2847 2094 
Q 2847 2600 2669 2842 
Q 2491 3084 2119 3084 
Q 1678 3084 1418 2786 
Q 1159 2488 1159 1978 
L 1159 0 
L 581 0 
L 581 3500 
L 1159 3500 
L 1159 2956 
Q 1356 3278 1631 3431 
Q 1906 3584 2284 3584 
Q 2666 3584 2933 3390 
Q 3200 3197 3328 2828 
z
" transform="scale(0.015625)"/>
     </defs>
     <use xlink:href="#DejaVuSans-56"/>
     <use xlink:href="#DejaVuSans-65" transform="translate(60.658203 0)"/>
     <use xlink:href="#DejaVuSans-72" transform="translate(122.181641 0)"/>
     <use xlink:href="#DejaVuSans-69" transform="translate(163.294922 0)"/>
     <use xlink:href="#DejaVuSans-66" transform="translate(191.078125 0)"/>
     <use xlink:href="#DejaVuSans-79" transform="translate(224.533203 0)"/>
     <use xlink:href="#DejaVuSans-20" transform="translate(283.712891 0)"/>
     <use xlink:href="#DejaVuSans-73" transform="translate(315.5 0)"/>
     <use xlink:href="#DejaVuSans-69" transform="translate(367.599609 0)"/>
     <use xlink:href="#DejaVuSans-67" transform="translate(395.382812 0)"/>
     <use xlink:href="#DejaVuSans-6e" transform="translate(458.859375 0)"/>
     <use xlink:href="#DejaVuSans-61" transform="translate(522.238281 0)"/>
     <use xlink:href="#DejaVuSans-74" transform="translate(583.517578 0)"/>
     <use xlink:href="#DejaVuSans-75" transform="translate(622.726562 0)"/>
     <use xlink:href="#DejaVuSans-72" transform="translate(686.105469 0)"/>
     <use xlink:href="#DejaVuSans-65" transform="translate(724.96875 0)"/>
     <use xlink:href="#DejaVuSans-20" transform="translate(786.492188 0)"/>
     <use xlink:href="#DejaVuSans-26" transform="translate(818.279297 0)"/>
     <use xlink:href="#DejaVuSans-20" transform="translate(896.257812 0)"/>
     <use xlink:href="#DejaVuSans-63" transform="translate(928.044922 0)"/>
     <use xlink:href="#DejaVuSans-6c" transform="translate(983.025391 0)"/>
     <use xlink:href="#DejaVuSans-61" transform="translate(1010.808594 0)"/>
     <use xlink:href="#DejaVuSans-69" transform="translate(1072.087891 0)"/>
     <use xlink:href="#DejaVuSans-6d" transform="translate(1099.871094 0)"/>
     <use xlink:href="#DejaVuSans-73" transform="translate(1197.283203 0)"/>
    </g>
   </g>
   <g id="text_5">
    <!-- jwks · iss · aud · exp · alg -->
    <g style="fill: #2c2c2a" transform="translate(180.95401 286.341644) scale(0.105 -0.105)">
     <defs>
      <path id="DejaVuSans-6a" d="M 603 3500 
L 1178 3500 
L 1178 -63 
Q 1178 -731 923 -1031 
Q 669 -1331 103 -1331 
L -116 -1331 
L -116 -844 
L 38 -844 
Q 366 -844 484 -692 
Q 603 -541 603 -63 
L 603 3500 
z
M 603 4863 
L 1178 4863 
L 1178 4134 
L 603 4134 
L 603 4863 
z
" transform="scale(0.015625)"/>
      <path id="DejaVuSans-77" d="M 269 3500 
L 844 3500 
L 1563 769 
L 2278 3500 
L 2956 3500 
L 3675 769 
L 4391 3500 
L 4966 3500 
L 4050 0 
L 3372 0 
L 2619 2869 
L 1863 0 
L 1184 0 
L 269 3500 
z
" transform="scale(0.015625)"/>
      <path id="DejaVuSans-b7" d="M 684 2619 
L 1344 2619 
L 1344 1825 
L 684 1825 
L 684 2619 
z
" transform="scale(0.015625)"/>
      <path id="DejaVuSans-64" d="M 2906 2969 
L 2906 4863 
L 3481 4863 
L 3481 0 
L 2906 0 
L 2906 525 
Q 2725 213 2448 61 
Q 2172 -91 1784 -91 
Q 1150 -91 751 415 
Q 353 922 353 1747 
Q 353 2572 751 3078 
Q 1150 3584 1784 3584 
Q 2172 3584 2448 3432 
Q 2725 3281 2906 2969 
z
M 947 1747 
Q 947 1113 1208 752 
Q 1469 391 1925 391 
Q 2381 391 2643 752 
Q 2906 1113 2906 1747 
Q 2906 2381 2643 2742 
Q 2381 3103 1925 3103 
Q 1469 3103 1208 2742 
Q 947 2381 947 1747 
z
" transform="scale(0.015625)"/>
     </defs>
     <use xlink:href="#DejaVuSans-6a"/>
     <use xlink:href="#DejaVuSans-77" transform="translate(27.783203 0)"/>
     <use xlink:href="#DejaVuSans-6b" transform="translate(109.570312 0)"/>
     <use xlink:href="#DejaVuSans-73" transform="translate(167.480469 0)"/>
     <use xlink:href="#DejaVuSans-20" transform="translate(219.580078 0)"/>
     <use xlink:href="#DejaVuSans-b7" transform="translate(251.367188 0)"/>
     <use xlink:href="#DejaVuSans-20" transform="translate(283.154297 0)"/>
     <use xlink:href="#DejaVuSans-69" transform="translate(314.941406 0)"/>
     <use xlink:href="#DejaVuSans-73" transform="translate(342.724609 0)"/>
     <use xlink:href="#DejaVuSans-73" transform="translate(394.824219 0)"/>
     <use xlink:href="#DejaVuSans-20" transform="translate(446.923828 0)"/>
     <use xlink:href="#DejaVuSans-b7" transform="translate(478.710938 0)"/>
     <use xlink:href="#DejaVuSans-20" transform="translate(510.498047 0)"/>
     <use xlink:href="#DejaVuSans-61" transform="translate(542.285156 0)"/>
     <use xlink:href="#DejaVuSans-75" transform="translate(603.564453 0)"/>
     <use xlink:href="#DejaVuSans-64" transform="translate(666.943359 0)"/>
     <use xlink:href="#DejaVuSans-20" transform="translate(730.419922 0)"/>
     <use xlink:href="#DejaVuSans-b7" transform="translate(762.207031 0)"/>
     <use xlink:href="#DejaVuSans-20" transform="translate(793.994141 0)"/>
     <use xlink:href="#DejaVuSans-65" transform="translate(825.78125 0)"/>
     <use xlink:href="#DejaVuSans-78" transform="translate(885.554688 0)"/>
     <use xlink:href="#DejaVuSans-70" transform="translate(944.734375 0)"/>
     <use xlink:href="#DejaVuSans-20" transform="translate(1008.210938 0)"/>
     <use xlink:href="#DejaVuSans-b7" transform="translate(1039.998047 0)"/>
     <use xlink:href="#DejaVuSans-20" transform="translate(1071.785156 0)"/>
     <use xlink:href="#DejaVuSans-61" transform="translate(1103.572266 0)"/>
     <use xlink:href="#DejaVuSans-6c" transform="translate(1164.851562 0)"/>
     <use xlink:href="#DejaVuSans-67" transform="translate(1192.634766 0)"/>
    </g>
   </g>
   <g id="text_6">
    <!-- Check revocation -->
    <g style="fill: #2c2c2a" transform="translate(190.477486 364.925407) scale(0.13 -0.13)">
     <defs>
      <path id="DejaVuSans-43" d="M 4122 4306 
L 4122 3641 
Q 3803 3938 3442 4084 
Q 3081 4231 2675 4231 
Q 1875 4231 1450 3742 
Q 1025 3253 1025 2328 
Q 1025 1406 1450 917 
Q 1875 428 2675 428 
Q 3081 428 3442 575 
Q 3803 722 4122 1019 
L 4122 359 
Q 3791 134 3420 21 
Q 3050 -91 2638 -91 
Q 1578 -91 968 557 
Q 359 1206 359 2328 
Q 359 3453 968 4101 
Q 1578 4750 2638 4750 
Q 3056 4750 3426 4639 
Q 3797 4528 4122 4306 
z
" transform="scale(0.015625)"/>
     </defs>
     <use xlink:href="#DejaVuSans-43"/>
     <use xlink:href="#DejaVuSans-68" transform="translate(69.824219 0)"/>
     <use xlink:href="#DejaVuSans-65" transform="translate(133.203125 0)"/>
     <use xlink:href="#DejaVuSans-63" transform="translate(194.726562 0)"/>
     <use xlink:href="#DejaVuSans-6b" transform="translate(249.707031 0)"/>
     <use xlink:href="#DejaVuSans-20" transform="translate(307.617188 0)"/>
     <use xlink:href="#DejaVuSans-72" transform="translate(339.404297 0)"/>
     <use xlink:href="#DejaVuSans-65" transform="translate(378.267578 0)"/>
     <use xlink:href="#DejaVuSans-76" transform="translate(439.791016 0)"/>
     <use xlink:href="#DejaVuSans-6f" transform="translate(498.970703 0)"/>
     <use xlink:href="#DejaVuSans-63" transform="translate(560.152344 0)"/>
     <use xlink:href="#DejaVuSans-61" transform="translate(615.132812 0)"/>
     <use xlink:href="#DejaVuSans-74" transform="translate(676.412109 0)"/>
     <use xlink:href="#DejaVuSans-69" transform="translate(715.621094 0)"/>
     <use xlink:href="#DejaVuSans-6f" transform="translate(743.404297 0)"/>
     <use xlink:href="#DejaVuSans-6e" transform="translate(804.585938 0)"/>
    </g>
   </g>
   <g id="text_7">
    <!-- jti denylist -->
    <g style="fill: #2c2c2a" transform="translate(219.544791 384.153644) scale(0.105 -0.105)">
     <use xlink:href="#DejaVuSans-6a"/>
     <use xlink:href="#DejaVuSans-74" transform="translate(27.783203 0)"/>
     <use xlink:href="#DejaVuSans-69" transform="translate(66.992188 0)"/>
     <use xlink:href="#DejaVuSans-20" transform="translate(94.775391 0)"/>
     <use xlink:href="#DejaVuSans-64" transform="translate(126.5625 0)"/>
     <use xlink:href="#DejaVuSans-65" transform="translate(190.039062 0)"/>
     <use xlink:href="#DejaVuSans-6e" transform="translate(251.5625 0)"/>
     <use xlink:href="#DejaVuSans-79" transform="translate(314.941406 0)"/>
     <use xlink:href="#DejaVuSans-6c" transform="translate(374.121094 0)"/>
     <use xlink:href="#DejaVuSans-69" transform="translate(401.904297 0)"/>
     <use xlink:href="#DejaVuSans-73" transform="translate(429.6875 0)"/>
     <use xlink:href="#DejaVuSans-74" transform="translate(481.787109 0)"/>
    </g>
   </g>
   <g id="text_8">
    <!-- Build principal -->
    <g style="fill: #2c2c2a" transform="translate(200.494596 462.737407) scale(0.13 -0.13)">
     <use xlink:href="#DejaVuSans-42"/>
     <use xlink:href="#DejaVuSans-75" transform="translate(68.603516 0)"/>
     <use xlink:href="#DejaVuSans-69" transform="translate(131.982422 0)"/>
     <use xlink:href="#DejaVuSans-6c" transform="translate(159.765625 0)"/>
     <use xlink:href="#DejaVuSans-64" transform="translate(187.548828 0)"/>
     <use xlink:href="#DejaVuSans-20" transform="translate(251.025391 0)"/>
     <use xlink:href="#DejaVuSans-70" transform="translate(282.8125 0)"/>
     <use xlink:href="#DejaVuSans-72" transform="translate(346.289062 0)"/>
     <use xlink:href="#DejaVuSans-69" transform="translate(387.402344 0)"/>
     <use xlink:href="#DejaVuSans-6e" transform="translate(415.185547 0)"/>
     <use xlink:href="#DejaVuSans-63" transform="translate(478.564453 0)"/>
     <use xlink:href="#DejaVuSans-69" transform="translate(533.544922 0)"/>
     <use xlink:href="#DejaVuSans-70" transform="translate(561.328125 0)"/>
     <use xlink:href="#DejaVuSans-61" transform="translate(624.804688 0)"/>
     <use xlink:href="#DejaVuSans-6c" transform="translate(686.083984 0)"/>
    </g>
   </g>
   <g id="text_9">
    <!-- scopes · amr · auth_time -->
    <g style="fill: #2c2c2a" transform="translate(181.84815 481.819628) scale(0.105 -0.105)">
     <defs>
      <path id="DejaVuSans-5f" d="M 3263 -1063 
L 3263 -1509 
L -63 -1509 
L -63 -1063 
L 3263 -1063 
z
" transform="scale(0.015625)"/>
     </defs>
     <use xlink:href="#DejaVuSans-73"/>
     <use xlink:href="#DejaVuSans-63" transform="translate(52.099609 0)"/>
     <use xlink:href="#DejaVuSans-6f" transform="translate(107.080078 0)"/>
     <use xlink:href="#DejaVuSans-70" transform="translate(168.261719 0)"/>
     <use xlink:href="#DejaVuSans-65" transform="translate(231.738281 0)"/>
     <use xlink:href="#DejaVuSans-73" transform="translate(293.261719 0)"/>
     <use xlink:href="#DejaVuSans-20" transform="translate(345.361328 0)"/>
     <use xlink:href="#DejaVuSans-b7" transform="translate(377.148438 0)"/>
     <use xlink:href="#DejaVuSans-20" transform="translate(408.935547 0)"/>
     <use xlink:href="#DejaVuSans-61" transform="translate(440.722656 0)"/>
     <use xlink:href="#DejaVuSans-6d" transform="translate(502.001953 0)"/>
     <use xlink:href="#DejaVuSans-72" transform="translate(599.414062 0)"/>
     <use xlink:href="#DejaVuSans-20" transform="translate(640.527344 0)"/>
     <use xlink:href="#DejaVuSans-b7" transform="translate(672.314453 0)"/>
     <use xlink:href="#DejaVuSans-20" transform="translate(704.101562 0)"/>
     <use xlink:href="#DejaVuSans-61" transform="translate(735.888672 0)"/>
     <use xlink:href="#DejaVuSans-75" transform="translate(797.167969 0)"/>
     <use xlink:href="#DejaVuSans-74" transform="translate(860.546875 0)"/>
     <use xlink:href="#DejaVuSans-68" transform="translate(899.755859 0)"/>
     <use xlink:href="#DejaVuSans-5f" transform="translate(963.134766 0)"/>
     <use xlink:href="#DejaVuSans-74" transform="translate(1013.134766 0)"/>
     <use xlink:href="#DejaVuSans-69" transform="translate(1052.34375 0)"/>
     <use xlink:href="#DejaVuSans-6d" transform="translate(1080.126953 0)"/>
     <use xlink:href="#DejaVuSans-65" transform="translate(1177.539062 0)"/>
    </g>
   </g>
   <g id="text_10">
    <!-- Scope check -->
    <g style="fill: #2c2c2a" transform="translate(205.996236 560.549407) scale(0.13 -0.13)">
     <defs>
      <path id="DejaVuSans-53" d="M 3425 4513 
L 3425 3897 
Q 3066 4069 2747 4153 
Q 2428 4238 2131 4238 
Q 1616 4238 1336 4038 
Q 1056 3838 1056 3469 
Q 1056 3159 1242 3001 
Q 1428 2844 1947 2747 
L 2328 2669 
Q 3034 2534 3370 2195 
Q 3706 1856 3706 1288 
Q 3706 609 3251 259 
Q 2797 -91 1919 -91 
Q 1588 -91 1214 -16 
Q 841 59 441 206 
L 441 856 
Q 825 641 1194 531 
Q 1563 422 1919 422 
Q 2459 422 2753 634 
Q 3047 847 3047 1241 
Q 3047 1584 2836 1778 
Q 2625 1972 2144 2069 
L 1759 2144 
Q 1053 2284 737 2584 
Q 422 2884 422 3419 
Q 422 4038 858 4394 
Q 1294 4750 2059 4750 
Q 2388 4750 2728 4690 
Q 3069 4631 3425 4513 
z
" transform="scale(0.015625)"/>
     </defs>
     <use xlink:href="#DejaVuSans-53"/>
     <use xlink:href="#DejaVuSans-63" transform="translate(63.476562 0)"/>
     <use xlink:href="#DejaVuSans-6f" transform="translate(118.457031 0)"/>
     <use xlink:href="#DejaVuSans-70" transform="translate(179.638672 0)"/>
     <use xlink:href="#DejaVuSans-65" transform="translate(243.115234 0)"/>
     <use xlink:href="#DejaVuSans-20" transform="translate(304.638672 0)"/>
     <use xlink:href="#DejaVuSans-63" transform="translate(336.425781 0)"/>
     <use xlink:href="#DejaVuSans-68" transform="translate(391.40625 0)"/>
     <use xlink:href="#DejaVuSans-65" transform="translate(454.785156 0)"/>
     <use xlink:href="#DejaVuSans-63" transform="translate(516.308594 0)"/>
     <use xlink:href="#DejaVuSans-6b" transform="translate(571.289062 0)"/>
    </g>
   </g>
   <g id="text_11">
    <!-- granted ∪ implied -->
    <g style="fill: #2c2c2a" transform="translate(199.674361 579.777644) scale(0.105 -0.105)">
     <defs>
      <path id="DejaVuSans-222a" d="M 825 1856 
L 825 3706 
L 1363 3706 
L 1363 1934 
Q 1363 1172 1594 842 
Q 1825 513 2344 513 
Q 2859 513 3090 842 
Q 3322 1172 3322 1934 
L 3322 3706 
L 3859 3706 
L 3859 1856 
Q 3859 931 3476 465 
Q 3094 0 2344 0 
Q 1591 0 1208 465 
Q 825 931 825 1856 
z
" transform="scale(0.015625)"/>
     </defs>
     <use xlink:href="#DejaVuSans-67"/>
     <use xlink:href="#DejaVuSans-72" transform="translate(63.476562 0)"/>
     <use xlink:href="#DejaVuSans-61" transform="translate(104.589844 0)"/>
     <use xlink:href="#DejaVuSans-6e" transform="translate(165.869141 0)"/>
     <use xlink:href="#DejaVuSans-74" transform="translate(229.248047 0)"/>
     <use xlink:href="#DejaVuSans-65" transform="translate(268.457031 0)"/>
     <use xlink:href="#DejaVuSans-64" transform="translate(329.980469 0)"/>
     <use xlink:href="#DejaVuSans-20" transform="translate(393.457031 0)"/>
     <use xlink:href="#DejaVuSans-222a" transform="translate(425.244141 0)"/>
     <use xlink:href="#DejaVuSans-20" transform="translate(498.4375 0)"/>
     <use xlink:href="#DejaVuSans-69" transform="translate(530.224609 0)"/>
     <use xlink:href="#DejaVuSans-6d" transform="translate(558.007812 0)"/>
     <use xlink:href="#DejaVuSans-70" transform="translate(655.419922 0)"/>
     <use xlink:href="#DejaVuSans-6c" transform="translate(718.896484 0)"/>
     <use xlink:href="#DejaVuSans-69" transform="translate(746.679688 0)"/>
     <use xlink:href="#DejaVuSans-65" transform="translate(774.462891 0)"/>
     <use xlink:href="#DejaVuSans-64" transform="translate(835.986328 0)"/>
    </g>
   </g>
   <g id="text_12">
    <!-- Step-up &amp; freshness -->
    <g style="fill: #2c2c2a" transform="translate(181.094127 658.361407) scale(0.13 -0.13)">
     <defs>
      <path id="DejaVuSans-2d" d="M 313 2009 
L 1997 2009 
L 1997 1497 
L 313 1497 
L 313 2009 
z
" transform="scale(0.015625)"/>
     </defs>
     <use xlink:href="#DejaVuSans-53"/>
     <use xlink:href="#DejaVuSans-74" transform="translate(63.476562 0)"/>
     <use xlink:href="#DejaVuSans-65" transform="translate(102.685547 0)"/>
     <use xlink:href="#DejaVuSans-70" transform="translate(164.208984 0)"/>
     <use xlink:href="#DejaVuSans-2d" transform="translate(227.685547 0)"/>
     <use xlink:href="#DejaVuSans-75" transform="translate(263.769531 0)"/>
     <use xlink:href="#DejaVuSans-70" transform="translate(327.148438 0)"/>
     <use xlink:href="#DejaVuSans-20" transform="translate(390.625 0)"/>
     <use xlink:href="#DejaVuSans-26" transform="translate(422.412109 0)"/>
     <use xlink:href="#DejaVuSans-20" transform="translate(500.390625 0)"/>
     <use xlink:href="#DejaVuSans-66" transform="translate(532.177734 0)"/>
     <use xlink:href="#DejaVuSans-72" transform="translate(567.382812 0)"/>
     <use xlink:href="#DejaVuSans-65" transform="translate(606.246094 0)"/>
     <use xlink:href="#DejaVuSans-73" transform="translate(667.769531 0)"/>
     <use xlink:href="#DejaVuSans-68" transform="translate(719.869141 0)"/>
     <use xlink:href="#DejaVuSans-6e" transform="translate(783.248047 0)"/>
     <use xlink:href="#DejaVuSans-65" transform="translate(846.626953 0)"/>
     <use xlink:href="#DejaVuSans-73" transform="translate(908.150391 0)"/>
     <use xlink:href="#DejaVuSans-73" transform="translate(960.25 0)"/>
    </g>
   </g>
   <g id="text_13">
    <!-- mfa · auth_time within ttl -->
    <g style="fill: #2c2c2a" transform="translate(180.461002 677.443628) scale(0.105 -0.105)">
     <use xlink:href="#DejaVuSans-6d"/>
     <use xlink:href="#DejaVuSans-66" transform="translate(97.412109 0)"/>
     <use xlink:href="#DejaVuSans-61" transform="translate(132.617188 0)"/>
     <use xlink:href="#DejaVuSans-20" transform="translate(193.896484 0)"/>
     <use xlink:href="#DejaVuSans-b7" transform="translate(225.683594 0)"/>
     <use xlink:href="#DejaVuSans-20" transform="translate(257.470703 0)"/>
     <use xlink:href="#DejaVuSans-61" transform="translate(289.257812 0)"/>
     <use xlink:href="#DejaVuSans-75" transform="translate(350.537109 0)"/>
     <use xlink:href="#DejaVuSans-74" transform="translate(413.916016 0)"/>
     <use xlink:href="#DejaVuSans-68" transform="translate(453.125 0)"/>
     <use xlink:href="#DejaVuSans-5f" transform="translate(516.503906 0)"/>
     <use xlink:href="#DejaVuSans-74" transform="translate(566.503906 0)"/>
     <use xlink:href="#DejaVuSans-69" transform="translate(605.712891 0)"/>
     <use xlink:href="#DejaVuSans-6d" transform="translate(633.496094 0)"/>
     <use xlink:href="#DejaVuSans-65" transform="translate(730.908203 0)"/>
     <use xlink:href="#DejaVuSans-20" transform="translate(792.431641 0)"/>
     <use xlink:href="#DejaVuSans-77" transform="translate(824.21875 0)"/>
     <use xlink:href="#DejaVuSans-69" transform="translate(906.005859 0)"/>
     <use xlink:href="#DejaVuSans-74" transform="translate(933.789062 0)"/>
     <use xlink:href="#DejaVuSans-68" transform="translate(972.998047 0)"/>
     <use xlink:href="#DejaVuSans-69" transform="translate(1036.376953 0)"/>
     <use xlink:href="#DejaVuSans-6e" transform="translate(1064.160156 0)"/>
     <use xlink:href="#DejaVuSans-20" transform="translate(1127.539062 0)"/>
     <use xlink:href="#DejaVuSans-74" transform="translate(1159.326172 0)"/>
     <use xlink:href="#DejaVuSans-74" transform="translate(1198.535156 0)"/>
     <use xlink:href="#DejaVuSans-6c" transform="translate(1237.744141 0)"/>
    </g>
   </g>
   <g id="text_14">
    <!-- Resource-level authz -->
    <g style="fill: #2c2c2a" transform="translate(179.040533 756.173407) scale(0.13 -0.13)">
     <defs>
      <path id="DejaVuSans-52" d="M 2841 2188 
Q 3044 2119 3236 1894 
Q 3428 1669 3622 1275 
L 4263 0 
L 3584 0 
L 2988 1197 
Q 2756 1666 2539 1819 
Q 2322 1972 1947 1972 
L 1259 1972 
L 1259 0 
L 628 0 
L 628 4666 
L 2053 4666 
Q 2853 4666 3247 4331 
Q 3641 3997 3641 3322 
Q 3641 2881 3436 2590 
Q 3231 2300 2841 2188 
z
M 1259 4147 
L 1259 2491 
L 2053 2491 
Q 2509 2491 2742 2702 
Q 2975 2913 2975 3322 
Q 2975 3731 2742 3939 
Q 2509 4147 2053 4147 
L 1259 4147 
z
" transform="scale(0.015625)"/>
     </defs>
     <use xlink:href="#DejaVuSans-52"/>
     <use xlink:href="#DejaVuSans-65" transform="translate(64.982422 0)"/>
     <use xlink:href="#DejaVuSans-73" transform="translate(126.505859 0)"/>
     <use xlink:href="#DejaVuSans-6f" transform="translate(178.605469 0)"/>
     <use xlink:href="#DejaVuSans-75" transform="translate(239.787109 0)"/>
     <use xlink:href="#DejaVuSans-72" transform="translate(303.166016 0)"/>
     <use xlink:href="#DejaVuSans-63" transform="translate(342.029297 0)"/>
     <use xlink:href="#DejaVuSans-65" transform="translate(397.009766 0)"/>
     <use xlink:href="#DejaVuSans-2d" transform="translate(458.533203 0)"/>
     <use xlink:href="#DejaVuSans-6c" transform="translate(494.617188 0)"/>
     <use xlink:href="#DejaVuSans-65" transform="translate(522.400391 0)"/>
     <use xlink:href="#DejaVuSans-76" transform="translate(583.923828 0)"/>
     <use xlink:href="#DejaVuSans-65" transform="translate(643.103516 0)"/>
     <use xlink:href="#DejaVuSans-6c" transform="translate(704.626953 0)"/>
     <use xlink:href="#DejaVuSans-20" transform="translate(732.410156 0)"/>
     <use xlink:href="#DejaVuSans-61" transform="translate(764.197266 0)"/>
     <use xlink:href="#DejaVuSans-75" transform="translate(825.476562 0)"/>
     <use xlink:href="#DejaVuSans-74" transform="translate(888.855469 0)"/>
     <use xlink:href="#DejaVuSans-68" transform="translate(928.064453 0)"/>
     <use xlink:href="#DejaVuSans-7a" transform="translate(991.443359 0)"/>
    </g>
   </g>
   <g id="text_15">
    <!-- ownership · tenant -->
    <g style="fill: #2c2c2a" transform="translate(197.59733 775.401644) scale(0.105 -0.105)">
     <use xlink:href="#DejaVuSans-6f"/>
     <use xlink:href="#DejaVuSans-77" transform="translate(61.181641 0)"/>
     <use xlink:href="#DejaVuSans-6e" transform="translate(142.96875 0)"/>
     <use xlink:href="#DejaVuSans-65" transform="translate(206.347656 0)"/>
     <use xlink:href="#DejaVuSans-72" transform="translate(267.871094 0)"/>
     <use xlink:href="#DejaVuSans-73" transform="translate(308.984375 0)"/>
     <use xlink:href="#DejaVuSans-68" transform="translate(361.083984 0)"/>
     <use xlink:href="#DejaVuSans-69" transform="translate(424.462891 0)"/>
     <use xlink:href="#DejaVuSans-70" transform="translate(452.246094 0)"/>
     <use xlink:href="#DejaVuSans-20" transform="translate(515.722656 0)"/>
     <use xlink:href="#DejaVuSans-b7" transform="translate(547.509766 0)"/>
     <use xlink:href="#DejaVuSans-20" transform="translate(579.296875 0)"/>
     <use xlink:href="#DejaVuSans-74" transform="translate(611.083984 0)"/>
     <use xlink:href="#DejaVuSans-65" transform="translate(650.292969 0)"/>
     <use xlink:href="#DejaVuSans-6e" transform="translate(711.816406 0)"/>
     <use xlink:href="#DejaVuSans-61" transform="translate(775.195312 0)"/>
     <use xlink:href="#DejaVuSans-6e" transform="translate(836.474609 0)"/>
     <use xlink:href="#DejaVuSans-74" transform="translate(899.853516 0)"/>
    </g>
   </g>
   <g id="text_16">
    <!-- Execute handler + audit -->
    <g style="fill: #04342c" transform="translate(167.851392 853.985407) scale(0.13 -0.13)">
     <defs>
      <path id="DejaVuSans-2b" d="M 2944 4013 
L 2944 2272 
L 4684 2272 
L 4684 1741 
L 2944 1741 
L 2944 0 
L 2419 0 
L 2419 1741 
L 678 1741 
L 678 2272 
L 2419 2272 
L 2419 4013 
L 2944 4013 
z
" transform="scale(0.015625)"/>
     </defs>
     <use xlink:href="#DejaVuSans-45"/>
     <use xlink:href="#DejaVuSans-78" transform="translate(63.183594 0)"/>
     <use xlink:href="#DejaVuSans-65" transform="translate(119.238281 0)"/>
     <use xlink:href="#DejaVuSans-63" transform="translate(180.761719 0)"/>
     <use xlink:href="#DejaVuSans-75" transform="translate(235.742188 0)"/>
     <use xlink:href="#DejaVuSans-74" transform="translate(299.121094 0)"/>
     <use xlink:href="#DejaVuSans-65" transform="translate(338.330078 0)"/>
     <use xlink:href="#DejaVuSans-20" transform="translate(399.853516 0)"/>
     <use xlink:href="#DejaVuSans-68" transform="translate(431.640625 0)"/>
     <use xlink:href="#DejaVuSans-61" transform="translate(495.019531 0)"/>
     <use xlink:href="#DejaVuSans-6e" transform="translate(556.298828 0)"/>
     <use xlink:href="#DejaVuSans-64" transform="translate(619.677734 0)"/>
     <use xlink:href="#DejaVuSans-6c" transform="translate(683.154297 0)"/>
     <use xlink:href="#DejaVuSans-65" transform="translate(710.9375 0)"/>
     <use xlink:href="#DejaVuSans-72" transform="translate(772.460938 0)"/>
     <use xlink:href="#DejaVuSans-20" transform="translate(813.574219 0)"/>
     <use xlink:href="#DejaVuSans-2b" transform="translate(845.361328 0)"/>
     <use xlink:href="#DejaVuSans-20" transform="translate(929.150391 0)"/>
     <use xlink:href="#DejaVuSans-61" transform="translate(960.9375 0)"/>
     <use xlink:href="#DejaVuSans-75" transform="translate(1022.216797 0)"/>
     <use xlink:href="#DejaVuSans-64" transform="translate(1085.595703 0)"/>
     <use xlink:href="#DejaVuSans-69" transform="translate(1149.072266 0)"/>
     <use xlink:href="#DejaVuSans-74" transform="translate(1176.855469 0)"/>
    </g>
   </g>
   <g id="text_17">
    <!-- business logic runs -->
    <g style="fill: #04342c" transform="translate(196.781939 873.213644) scale(0.105 -0.105)">
     <defs>
      <path id="DejaVuSans-62" d="M 3116 1747 
Q 3116 2381 2855 2742 
Q 2594 3103 2138 3103 
Q 1681 3103 1420 2742 
Q 1159 2381 1159 1747 
Q 1159 1113 1420 752 
Q 1681 391 2138 391 
Q 2594 391 2855 752 
Q 3116 1113 3116 1747 
z
M 1159 2969 
Q 1341 3281 1617 3432 
Q 1894 3584 2278 3584 
Q 2916 3584 3314 3078 
Q 3713 2572 3713 1747 
Q 3713 922 3314 415 
Q 2916 -91 2278 -91 
Q 1894 -91 1617 61 
Q 1341 213 1159 525 
L 1159 0 
L 581 0 
L 581 4863 
L 1159 4863 
L 1159 2969 
z
" transform="scale(0.015625)"/>
     </defs>
     <use xlink:href="#DejaVuSans-62"/>
     <use xlink:href="#DejaVuSans-75" transform="translate(63.476562 0)"/>
     <use xlink:href="#DejaVuSans-73" transform="translate(126.855469 0)"/>
     <use xlink:href="#DejaVuSans-69" transform="translate(178.955078 0)"/>
     <use xlink:href="#DejaVuSans-6e" transform="translate(206.738281 0)"/>
     <use xlink:href="#DejaVuSans-65" transform="translate(270.117188 0)"/>
     <use xlink:href="#DejaVuSans-73" transform="translate(331.640625 0)"/>
     <use xlink:href="#DejaVuSans-73" transform="translate(383.740234 0)"/>
     <use xlink:href="#DejaVuSans-20" transform="translate(435.839844 0)"/>
     <use xlink:href="#DejaVuSans-6c" transform="translate(467.626953 0)"/>
     <use xlink:href="#DejaVuSans-6f" transform="translate(495.410156 0)"/>
     <use xlink:href="#DejaVuSans-67" transform="translate(556.591797 0)"/>
     <use xlink:href="#DejaVuSans-69" transform="translate(620.068359 0)"/>
     <use xlink:href="#DejaVuSans-63" transform="translate(647.851562 0)"/>
     <use xlink:href="#DejaVuSans-20" transform="translate(702.832031 0)"/>
     <use xlink:href="#DejaVuSans-72" transform="translate(734.619141 0)"/>
     <use xlink:href="#DejaVuSans-75" transform="translate(775.732422 0)"/>
     <use xlink:href="#DejaVuSans-6e" transform="translate(839.111328 0)"/>
     <use xlink:href="#DejaVuSans-73" transform="translate(902.490234 0)"/>
    </g>
   </g>
   <g id="text_18">
    <!-- 401 invalid_request -->
    <g style="fill: #791f1f" transform="translate(559.640947 170.187666) scale(0.13 -0.13)">
     <defs>
      <path id="DejaVuSans-34" d="M 2419 4116 
L 825 1625 
L 2419 1625 
L 2419 4116 
z
M 2253 4666 
L 3047 4666 
L 3047 1625 
L 3713 1625 
L 3713 1100 
L 3047 1100 
L 3047 0 
L 2419 0 
L 2419 1100 
L 313 1100 
L 313 1709 
L 2253 4666 
z
" transform="scale(0.015625)"/>
      <path id="DejaVuSans-30" d="M 2034 4250 
Q 1547 4250 1301 3770 
Q 1056 3291 1056 2328 
Q 1056 1369 1301 889 
Q 1547 409 2034 409 
Q 2525 409 2770 889 
Q 3016 1369 3016 2328 
Q 3016 3291 2770 3770 
Q 2525 4250 2034 4250 
z
M 2034 4750 
Q 2819 4750 3233 4129 
Q 3647 3509 3647 2328 
Q 3647 1150 3233 529 
Q 2819 -91 2034 -91 
Q 1250 -91 836 529 
Q 422 1150 422 2328 
Q 422 3509 836 4129 
Q 1250 4750 2034 4750 
z
" transform="scale(0.015625)"/>
      <path id="DejaVuSans-31" d="M 794 531 
L 1825 531 
L 1825 4091 
L 703 3866 
L 703 4441 
L 1819 4666 
L 2450 4666 
L 2450 531 
L 3481 531 
L 3481 0 
L 794 0 
L 794 531 
z
" transform="scale(0.015625)"/>
      <path id="DejaVuSans-71" d="M 947 1747 
Q 947 1113 1208 752 
Q 1469 391 1925 391 
Q 2381 391 2643 752 
Q 2906 1113 2906 1747 
Q 2906 2381 2643 2742 
Q 2381 3103 1925 3103 
Q 1469 3103 1208 2742 
Q 947 2381 947 1747 
z
M 2906 525 
Q 2725 213 2448 61 
Q 2172 -91 1784 -91 
Q 1150 -91 751 415 
Q 353 922 353 1747 
Q 353 2572 751 3078 
Q 1150 3584 1784 3584 
Q 2172 3584 2448 3432 
Q 2725 3281 2906 2969 
L 2906 3500 
L 3481 3500 
L 3481 -1331 
L 2906 -1331 
L 2906 525 
z
" transform="scale(0.015625)"/>
     </defs>
     <use xlink:href="#DejaVuSans-34"/>
     <use xlink:href="#DejaVuSans-30" transform="translate(63.623047 0)"/>
     <use xlink:href="#DejaVuSans-31" transform="translate(127.246094 0)"/>
     <use xlink:href="#DejaVuSans-20" transform="translate(190.869141 0)"/>
     <use xlink:href="#DejaVuSans-69" transform="translate(222.65625 0)"/>
     <use xlink:href="#DejaVuSans-6e" transform="translate(250.439453 0)"/>
     <use xlink:href="#DejaVuSans-76" transform="translate(313.818359 0)"/>
     <use xlink:href="#DejaVuSans-61" transform="translate(372.998047 0)"/>
     <use xlink:href="#DejaVuSans-6c" transform="translate(434.277344 0)"/>
     <use xlink:href="#DejaVuSans-69" transform="translate(462.060547 0)"/>
     <use xlink:href="#DejaVuSans-64" transform="translate(489.84375 0)"/>
     <use xlink:href="#DejaVuSans-5f" transform="translate(553.320312 0)"/>
     <use xlink:href="#DejaVuSans-72" transform="translate(603.320312 0)"/>
     <use xlink:href="#DejaVuSans-65" transform="translate(642.183594 0)"/>
     <use xlink:href="#DejaVuSans-71" transform="translate(703.707031 0)"/>
     <use xlink:href="#DejaVuSans-75" transform="translate(767.183594 0)"/>
     <use xlink:href="#DejaVuSans-65" transform="translate(830.5625 0)"/>
     <use xlink:href="#DejaVuSans-73" transform="translate(892.085938 0)"/>
     <use xlink:href="#DejaVuSans-74" transform="translate(944.185547 0)"/>
    </g>
   </g>
   <g id="text_19">
    <!-- missing / malformed -->
    <g style="fill: #791f1f" transform="translate(569.702275 186.751244) scale(0.105 -0.105)">
     <defs>
      <path id="DejaVuSans-2f" d="M 1625 4666 
L 2156 4666 
L 531 -594 
L 0 -594 
L 1625 4666 
z
" transform="scale(0.015625)"/>
     </defs>
     <use xlink:href="#DejaVuSans-6d"/>
     <use xlink:href="#DejaVuSans-69" transform="translate(97.412109 0)"/>
     <use xlink:href="#DejaVuSans-73" transform="translate(125.195312 0)"/>
     <use xlink:href="#DejaVuSans-73" transform="translate(177.294922 0)"/>
     <use xlink:href="#DejaVuSans-69" transform="translate(229.394531 0)"/>
     <use xlink:href="#DejaVuSans-6e" transform="translate(257.177734 0)"/>
     <use xlink:href="#DejaVuSans-67" transform="translate(320.556641 0)"/>
     <use xlink:href="#DejaVuSans-20" transform="translate(384.033203 0)"/>
     <use xlink:href="#DejaVuSans-2f" transform="translate(415.820312 0)"/>
     <use xlink:href="#DejaVuSans-20" transform="translate(449.511719 0)"/>
     <use xlink:href="#DejaVuSans-6d" transform="translate(481.298828 0)"/>
     <use xlink:href="#DejaVuSans-61" transform="translate(578.710938 0)"/>
     <use xlink:href="#DejaVuSans-6c" transform="translate(639.990234 0)"/>
     <use xlink:href="#DejaVuSans-66" transform="translate(667.773438 0)"/>
     <use xlink:href="#DejaVuSans-6f" transform="translate(702.978516 0)"/>
     <use xlink:href="#DejaVuSans-72" transform="translate(764.160156 0)"/>
     <use xlink:href="#DejaVuSans-6d" transform="translate(803.523438 0)"/>
     <use xlink:href="#DejaVuSans-65" transform="translate(900.935547 0)"/>
     <use xlink:href="#DejaVuSans-64" transform="translate(962.458984 0)"/>
    </g>
   </g>
   <g id="text_20">
    <!-- 401 invalid_token -->
    <g style="fill: #791f1f" transform="translate(566.173447 267.999666) scale(0.13 -0.13)">
     <use xlink:href="#DejaVuSans-34"/>
     <use xlink:href="#DejaVuSans-30" transform="translate(63.623047 0)"/>
     <use xlink:href="#DejaVuSans-31" transform="translate(127.246094 0)"/>
     <use xlink:href="#DejaVuSans-20" transform="translate(190.869141 0)"/>
     <use xlink:href="#DejaVuSans-69" transform="translate(222.65625 0)"/>
     <use xlink:href="#DejaVuSans-6e" transform="translate(250.439453 0)"/>
     <use xlink:href="#DejaVuSans-76" transform="translate(313.818359 0)"/>
     <use xlink:href="#DejaVuSans-61" transform="translate(372.998047 0)"/>
     <use xlink:href="#DejaVuSans-6c" transform="translate(434.277344 0)"/>
     <use xlink:href="#DejaVuSans-69" transform="translate(462.060547 0)"/>
     <use xlink:href="#DejaVuSans-64" transform="translate(489.84375 0)"/>
     <use xlink:href="#DejaVuSans-5f" transform="translate(553.320312 0)"/>
     <use xlink:href="#DejaVuSans-74" transform="translate(603.320312 0)"/>
     <use xlink:href="#DejaVuSans-6f" transform="translate(642.529297 0)"/>
     <use xlink:href="#DejaVuSans-6b" transform="translate(703.710938 0)"/>
     <use xlink:href="#DejaVuSans-65" transform="translate(757.996094 0)"/>
     <use xlink:href="#DejaVuSans-6e" transform="translate(819.519531 0)"/>
    </g>
   </g>
   <g id="text_21">
    <!-- bad sig / expired / aud -->
    <g style="fill: #791f1f" transform="translate(564.75497 284.563244) scale(0.105 -0.105)">
     <use xlink:href="#DejaVuSans-62"/>
     <use xlink:href="#DejaVuSans-61" transform="translate(63.476562 0)"/>
     <use xlink:href="#DejaVuSans-64" transform="translate(124.755859 0)"/>
     <use xlink:href="#DejaVuSans-20" transform="translate(188.232422 0)"/>
     <use xlink:href="#DejaVuSans-73" transform="translate(220.019531 0)"/>
     <use xlink:href="#DejaVuSans-69" transform="translate(272.119141 0)"/>
     <use xlink:href="#DejaVuSans-67" transform="translate(299.902344 0)"/>
     <use xlink:href="#DejaVuSans-20" transform="translate(363.378906 0)"/>
     <use xlink:href="#DejaVuSans-2f" transform="translate(395.166016 0)"/>
     <use xlink:href="#DejaVuSans-20" transform="translate(428.857422 0)"/>
     <use xlink:href="#DejaVuSans-65" transform="translate(460.644531 0)"/>
     <use xlink:href="#DejaVuSans-78" transform="translate(520.417969 0)"/>
     <use xlink:href="#DejaVuSans-70" transform="translate(579.597656 0)"/>
     <use xlink:href="#DejaVuSans-69" transform="translate(643.074219 0)"/>
     <use xlink:href="#DejaVuSans-72" transform="translate(670.857422 0)"/>
     <use xlink:href="#DejaVuSans-65" transform="translate(709.720703 0)"/>
     <use xlink:href="#DejaVuSans-64" transform="translate(771.244141 0)"/>
     <use xlink:href="#DejaVuSans-20" transform="translate(834.720703 0)"/>
     <use xlink:href="#DejaVuSans-2f" transform="translate(866.507812 0)"/>
     <use xlink:href="#DejaVuSans-20" transform="translate(900.199219 0)"/>
     <use xlink:href="#DejaVuSans-61" transform="translate(931.986328 0)"/>
     <use xlink:href="#DejaVuSans-75" transform="translate(993.265625 0)"/>
     <use xlink:href="#DejaVuSans-64" transform="translate(1056.644531 0)"/>
    </g>
   </g>
   <g id="text_22">
    <!-- 401 invalid_token -->
    <g style="fill: #791f1f" transform="translate(566.173447 365.811666) scale(0.13 -0.13)">
     <use xlink:href="#DejaVuSans-34"/>
     <use xlink:href="#DejaVuSans-30" transform="translate(63.623047 0)"/>
     <use xlink:href="#DejaVuSans-31" transform="translate(127.246094 0)"/>
     <use xlink:href="#DejaVuSans-20" transform="translate(190.869141 0)"/>
     <use xlink:href="#DejaVuSans-69" transform="translate(222.65625 0)"/>
     <use xlink:href="#DejaVuSans-6e" transform="translate(250.439453 0)"/>
     <use xlink:href="#DejaVuSans-76" transform="translate(313.818359 0)"/>
     <use xlink:href="#DejaVuSans-61" transform="translate(372.998047 0)"/>
     <use xlink:href="#DejaVuSans-6c" transform="translate(434.277344 0)"/>
     <use xlink:href="#DejaVuSans-69" transform="translate(462.060547 0)"/>
     <use xlink:href="#DejaVuSans-64" transform="translate(489.84375 0)"/>
     <use xlink:href="#DejaVuSans-5f" transform="translate(553.320312 0)"/>
     <use xlink:href="#DejaVuSans-74" transform="translate(603.320312 0)"/>
     <use xlink:href="#DejaVuSans-6f" transform="translate(642.529297 0)"/>
     <use xlink:href="#DejaVuSans-6b" transform="translate(703.710938 0)"/>
     <use xlink:href="#DejaVuSans-65" transform="translate(757.996094 0)"/>
     <use xlink:href="#DejaVuSans-6e" transform="translate(819.519531 0)"/>
    </g>
   </g>
   <g id="text_23">
    <!-- revoked -->
    <g style="fill: #791f1f" transform="translate(602.559072 382.375244) scale(0.105 -0.105)">
     <use xlink:href="#DejaVuSans-72"/>
     <use xlink:href="#DejaVuSans-65" transform="translate(38.863281 0)"/>
     <use xlink:href="#DejaVuSans-76" transform="translate(100.386719 0)"/>
     <use xlink:href="#DejaVuSans-6f" transform="translate(159.566406 0)"/>
     <use xlink:href="#DejaVuSans-6b" transform="translate(220.748047 0)"/>
     <use xlink:href="#DejaVuSans-65" transform="translate(275.033203 0)"/>
     <use xlink:href="#DejaVuSans-64" transform="translate(336.556641 0)"/>
    </g>
   </g>
   <g id="text_24">
    <!-- 403 insufficient_scope -->
    <g style="fill: #791f1f" transform="translate(550.916728 561.435666) scale(0.13 -0.13)">
     <defs>
      <path id="DejaVuSans-33" d="M 2597 2516 
Q 3050 2419 3304 2112 
Q 3559 1806 3559 1356 
Q 3559 666 3084 287 
Q 2609 -91 1734 -91 
Q 1441 -91 1130 -33 
Q 819 25 488 141 
L 488 750 
Q 750 597 1062 519 
Q 1375 441 1716 441 
Q 2309 441 2620 675 
Q 2931 909 2931 1356 
Q 2931 1769 2642 2001 
Q 2353 2234 1838 2234 
L 1294 2234 
L 1294 2753 
L 1863 2753 
Q 2328 2753 2575 2939 
Q 2822 3125 2822 3475 
Q 2822 3834 2567 4026 
Q 2313 4219 1838 4219 
Q 1578 4219 1281 4162 
Q 984 4106 628 3988 
L 628 4550 
Q 988 4650 1302 4700 
Q 1616 4750 1894 4750 
Q 2613 4750 3031 4423 
Q 3450 4097 3450 3541 
Q 3450 3153 3228 2886 
Q 3006 2619 2597 2516 
z
" transform="scale(0.015625)"/>
     </defs>
     <use xlink:href="#DejaVuSans-34"/>
     <use xlink:href="#DejaVuSans-30" transform="translate(63.623047 0)"/>
     <use xlink:href="#DejaVuSans-33" transform="translate(127.246094 0)"/>
     <use xlink:href="#DejaVuSans-20" transform="translate(190.869141 0)"/>
     <use xlink:href="#DejaVuSans-69" transform="translate(222.65625 0)"/>
     <use xlink:href="#DejaVuSans-6e" transform="translate(250.439453 0)"/>
     <use xlink:href="#DejaVuSans-73" transform="translate(313.818359 0)"/>
     <use xlink:href="#DejaVuSans-75" transform="translate(365.917969 0)"/>
     <use xlink:href="#DejaVuSans-66" transform="translate(429.296875 0)"/>
     <use xlink:href="#DejaVuSans-66" transform="translate(464.501953 0)"/>
     <use xlink:href="#DejaVuSans-69" transform="translate(499.707031 0)"/>
     <use xlink:href="#DejaVuSans-63" transform="translate(527.490234 0)"/>
     <use xlink:href="#DejaVuSans-69" transform="translate(582.470703 0)"/>
     <use xlink:href="#DejaVuSans-65" transform="translate(610.253906 0)"/>
     <use xlink:href="#DejaVuSans-6e" transform="translate(671.777344 0)"/>
     <use xlink:href="#DejaVuSans-74" transform="translate(735.15625 0)"/>
     <use xlink:href="#DejaVuSans-5f" transform="translate(774.365234 0)"/>
     <use xlink:href="#DejaVuSans-73" transform="translate(824.365234 0)"/>
     <use xlink:href="#DejaVuSans-63" transform="translate(876.464844 0)"/>
     <use xlink:href="#DejaVuSans-6f" transform="translate(931.445312 0)"/>
     <use xlink:href="#DejaVuSans-70" transform="translate(992.626953 0)"/>
     <use xlink:href="#DejaVuSans-65" transform="translate(1056.103516 0)"/>
    </g>
   </g>
   <g id="text_25">
    <!-- scope absent -->
    <g style="fill: #791f1f" transform="translate(588.595712 577.999244) scale(0.105 -0.105)">
     <use xlink:href="#DejaVuSans-73"/>
     <use xlink:href="#DejaVuSans-63" transform="translate(52.099609 0)"/>
     <use xlink:href="#DejaVuSans-6f" transform="translate(107.080078 0)"/>
     <use xlink:href="#DejaVuSans-70" transform="translate(168.261719 0)"/>
     <use xlink:href="#DejaVuSans-65" transform="translate(231.738281 0)"/>
     <use xlink:href="#DejaVuSans-20" transform="translate(293.261719 0)"/>
     <use xlink:href="#DejaVuSans-61" transform="translate(325.048828 0)"/>
     <use xlink:href="#DejaVuSans-62" transform="translate(386.328125 0)"/>
     <use xlink:href="#DejaVuSans-73" transform="translate(449.804688 0)"/>
     <use xlink:href="#DejaVuSans-65" transform="translate(501.904297 0)"/>
     <use xlink:href="#DejaVuSans-6e" transform="translate(563.427734 0)"/>
     <use xlink:href="#DejaVuSans-74" transform="translate(626.806641 0)"/>
    </g>
   </g>
   <g id="text_26">
    <!-- 401 step-up -->
    <g style="fill: #791f1f" transform="translate(584.438447 659.428447) scale(0.13 -0.13)">
     <use xlink:href="#DejaVuSans-34"/>
     <use xlink:href="#DejaVuSans-30" transform="translate(63.623047 0)"/>
     <use xlink:href="#DejaVuSans-31" transform="translate(127.246094 0)"/>
     <use xlink:href="#DejaVuSans-20" transform="translate(190.869141 0)"/>
     <use xlink:href="#DejaVuSans-73" transform="translate(222.65625 0)"/>
     <use xlink:href="#DejaVuSans-74" transform="translate(274.755859 0)"/>
     <use xlink:href="#DejaVuSans-65" transform="translate(313.964844 0)"/>
     <use xlink:href="#DejaVuSans-70" transform="translate(375.488281 0)"/>
     <use xlink:href="#DejaVuSans-2d" transform="translate(438.964844 0)"/>
     <use xlink:href="#DejaVuSans-75" transform="translate(475.048828 0)"/>
     <use xlink:href="#DejaVuSans-70" transform="translate(538.427734 0)"/>
    </g>
   </g>
   <g id="text_27">
    <!-- insufficient_user_auth -->
    <g style="fill: #791f1f" transform="translate(565.968212 675.665228) scale(0.105 -0.105)">
     <use xlink:href="#DejaVuSans-69"/>
     <use xlink:href="#DejaVuSans-6e" transform="translate(27.783203 0)"/>
     <use xlink:href="#DejaVuSans-73" transform="translate(91.162109 0)"/>
     <use xlink:href="#DejaVuSans-75" transform="translate(143.261719 0)"/>
     <use xlink:href="#DejaVuSans-66" transform="translate(206.640625 0)"/>
     <use xlink:href="#DejaVuSans-66" transform="translate(241.845703 0)"/>
     <use xlink:href="#DejaVuSans-69" transform="translate(277.050781 0)"/>
     <use xlink:href="#DejaVuSans-63" transform="translate(304.833984 0)"/>
     <use xlink:href="#DejaVuSans-69" transform="translate(359.814453 0)"/>
     <use xlink:href="#DejaVuSans-65" transform="translate(387.597656 0)"/>
     <use xlink:href="#DejaVuSans-6e" transform="translate(449.121094 0)"/>
     <use xlink:href="#DejaVuSans-74" transform="translate(512.5 0)"/>
     <use xlink:href="#DejaVuSans-5f" transform="translate(551.708984 0)"/>
     <use xlink:href="#DejaVuSans-75" transform="translate(601.708984 0)"/>
     <use xlink:href="#DejaVuSans-73" transform="translate(665.087891 0)"/>
     <use xlink:href="#DejaVuSans-65" transform="translate(717.1875 0)"/>
     <use xlink:href="#DejaVuSans-72" transform="translate(778.710938 0)"/>
     <use xlink:href="#DejaVuSans-5f" transform="translate(819.824219 0)"/>
     <use xlink:href="#DejaVuSans-61" transform="translate(869.824219 0)"/>
     <use xlink:href="#DejaVuSans-75" transform="translate(931.103516 0)"/>
     <use xlink:href="#DejaVuSans-74" transform="translate(994.482422 0)"/>
     <use xlink:href="#DejaVuSans-68" transform="translate(1033.691406 0)"/>
    </g>
   </g>
   <g id="text_28">
    <!-- 403 / 404 -->
    <g style="fill: #791f1f" transform="translate(592.427353 757.240447) scale(0.13 -0.13)">
     <use xlink:href="#DejaVuSans-34"/>
     <use xlink:href="#DejaVuSans-30" transform="translate(63.623047 0)"/>
     <use xlink:href="#DejaVuSans-33" transform="translate(127.246094 0)"/>
     <use xlink:href="#DejaVuSans-20" transform="translate(190.869141 0)"/>
     <use xlink:href="#DejaVuSans-2f" transform="translate(222.65625 0)"/>
     <use xlink:href="#DejaVuSans-20" transform="translate(256.347656 0)"/>
     <use xlink:href="#DejaVuSans-34" transform="translate(288.134766 0)"/>
     <use xlink:href="#DejaVuSans-30" transform="translate(351.757812 0)"/>
     <use xlink:href="#DejaVuSans-34" transform="translate(415.380859 0)"/>
    </g>
   </g>
   <g id="text_29">
    <!-- not owner / wrong tenant -->
    <g style="fill: #791f1f" transform="translate(556.875869 773.623244) scale(0.105 -0.105)">
     <use xlink:href="#DejaVuSans-6e"/>
     <use xlink:href="#DejaVuSans-6f" transform="translate(63.378906 0)"/>
     <use xlink:href="#DejaVuSans-74" transform="translate(124.560547 0)"/>
     <use xlink:href="#DejaVuSans-20" transform="translate(163.769531 0)"/>
     <use xlink:href="#DejaVuSans-6f" transform="translate(195.556641 0)"/>
     <use xlink:href="#DejaVuSans-77" transform="translate(256.738281 0)"/>
     <use xlink:href="#DejaVuSans-6e" transform="translate(338.525391 0)"/>
     <use xlink:href="#DejaVuSans-65" transform="translate(401.904297 0)"/>
     <use xlink:href="#DejaVuSans-72" transform="translate(463.427734 0)"/>
     <use xlink:href="#DejaVuSans-20" transform="translate(504.541016 0)"/>
     <use xlink:href="#DejaVuSans-2f" transform="translate(536.328125 0)"/>
     <use xlink:href="#DejaVuSans-20" transform="translate(570.019531 0)"/>
     <use xlink:href="#DejaVuSans-77" transform="translate(601.806641 0)"/>
     <use xlink:href="#DejaVuSans-72" transform="translate(683.59375 0)"/>
     <use xlink:href="#DejaVuSans-6f" transform="translate(722.457031 0)"/>
     <use xlink:href="#DejaVuSans-6e" transform="translate(783.638672 0)"/>
     <use xlink:href="#DejaVuSans-67" transform="translate(847.017578 0)"/>
     <use xlink:href="#DejaVuSans-20" transform="translate(910.494141 0)"/>
     <use xlink:href="#DejaVuSans-74" transform="translate(942.28125 0)"/>
     <use xlink:href="#DejaVuSans-65" transform="translate(981.490234 0)"/>
     <use xlink:href="#DejaVuSans-6e" transform="translate(1043.013672 0)"/>
     <use xlink:href="#DejaVuSans-61" transform="translate(1106.392578 0)"/>
     <use xlink:href="#DejaVuSans-6e" transform="translate(1167.671875 0)"/>
     <use xlink:href="#DejaVuSans-74" transform="translate(1231.050781 0)"/>
    </g>
   </g>
   <g id="text_30">
    <!-- grey = checks -->
    <g style="fill: #2c2c2a" transform="translate(586.009267 851.872844) scale(0.105 -0.105)">
     <defs>
      <path id="DejaVuSans-3d" d="M 678 2906 
L 4684 2906 
L 4684 2381 
L 678 2381 
L 678 2906 
z
M 678 1631 
L 4684 1631 
L 4684 1100 
L 678 1100 
L 678 1631 
z
" transform="scale(0.015625)"/>
     </defs>
     <use xlink:href="#DejaVuSans-67"/>
     <use xlink:href="#DejaVuSans-72" transform="translate(63.476562 0)"/>
     <use xlink:href="#DejaVuSans-65" transform="translate(102.339844 0)"/>
     <use xlink:href="#DejaVuSans-79" transform="translate(163.863281 0)"/>
     <use xlink:href="#DejaVuSans-20" transform="translate(223.042969 0)"/>
     <use xlink:href="#DejaVuSans-3d" transform="translate(254.830078 0)"/>
     <use xlink:href="#DejaVuSans-20" transform="translate(338.619141 0)"/>
     <use xlink:href="#DejaVuSans-63" transform="translate(370.40625 0)"/>
     <use xlink:href="#DejaVuSans-68" transform="translate(425.386719 0)"/>
     <use xlink:href="#DejaVuSans-65" transform="translate(488.765625 0)"/>
     <use xlink:href="#DejaVuSans-63" transform="translate(550.289062 0)"/>
     <use xlink:href="#DejaVuSans-6b" transform="translate(605.269531 0)"/>
     <use xlink:href="#DejaVuSans-73" transform="translate(663.179688 0)"/>
    </g>
   </g>
   <g id="text_31">
    <!-- red = deny · teal = allow -->
    <g style="fill: #2c2c2a" transform="translate(557.87829 871.879844) scale(0.105 -0.105)">
     <use xlink:href="#DejaVuSans-72"/>
     <use xlink:href="#DejaVuSans-65" transform="translate(38.863281 0)"/>
     <use xlink:href="#DejaVuSans-64" transform="translate(100.386719 0)"/>
     <use xlink:href="#DejaVuSans-20" transform="translate(163.863281 0)"/>
     <use xlink:href="#DejaVuSans-3d" transform="translate(195.650391 0)"/>
     <use xlink:href="#DejaVuSans-20" transform="translate(279.439453 0)"/>
     <use xlink:href="#DejaVuSans-64" transform="translate(311.226562 0)"/>
     <use xlink:href="#DejaVuSans-65" transform="translate(374.703125 0)"/>
     <use xlink:href="#DejaVuSans-6e" transform="translate(436.226562 0)"/>
     <use xlink:href="#DejaVuSans-79" transform="translate(499.605469 0)"/>
     <use xlink:href="#DejaVuSans-20" transform="translate(558.785156 0)"/>
     <use xlink:href="#DejaVuSans-b7" transform="translate(590.572266 0)"/>
     <use xlink:href="#DejaVuSans-20" transform="translate(622.359375 0)"/>
     <use xlink:href="#DejaVuSans-74" transform="translate(654.146484 0)"/>
     <use xlink:href="#DejaVuSans-65" transform="translate(693.355469 0)"/>
     <use xlink:href="#DejaVuSans-61" transform="translate(754.878906 0)"/>
     <use xlink:href="#DejaVuSans-6c" transform="translate(816.158203 0)"/>
     <use xlink:href="#DejaVuSans-20" transform="translate(843.941406 0)"/>
     <use xlink:href="#DejaVuSans-3d" transform="translate(875.728516 0)"/>
     <use xlink:href="#DejaVuSans-20" transform="translate(959.517578 0)"/>
     <use xlink:href="#DejaVuSans-61" transform="translate(991.304688 0)"/>
     <use xlink:href="#DejaVuSans-6c" transform="translate(1052.583984 0)"/>
     <use xlink:href="#DejaVuSans-6c" transform="translate(1080.367188 0)"/>
     <use xlink:href="#DejaVuSans-6f" transform="translate(1108.150391 0)"/>
     <use xlink:href="#DejaVuSans-77" transform="translate(1169.332031 0)"/>
    </g>
   </g>
   <g id="text_32">
    <!-- Resource server authorization pipeline -->
    <g style="fill: #2c2c2a" transform="translate(22.7232 19.3575) scale(0.16 -0.16)">
     <use xlink:href="#DejaVuSans-52"/>
     <use xlink:href="#DejaVuSans-65" transform="translate(64.982422 0)"/>
     <use xlink:href="#DejaVuSans-73" transform="translate(126.505859 0)"/>
     <use xlink:href="#DejaVuSans-6f" transform="translate(178.605469 0)"/>
     <use xlink:href="#DejaVuSans-75" transform="translate(239.787109 0)"/>
     <use xlink:href="#DejaVuSans-72" transform="translate(303.166016 0)"/>
     <use xlink:href="#DejaVuSans-63" transform="translate(342.029297 0)"/>
     <use xlink:href="#DejaVuSans-65" transform="translate(397.009766 0)"/>
     <use xlink:href="#DejaVuSans-20" transform="translate(458.533203 0)"/>
     <use xlink:href="#DejaVuSans-73" transform="translate(490.320312 0)"/>
     <use xlink:href="#DejaVuSans-65" transform="translate(542.419922 0)"/>
     <use xlink:href="#DejaVuSans-72" transform="translate(603.943359 0)"/>
     <use xlink:href="#DejaVuSans-76" transform="translate(645.056641 0)"/>
     <use xlink:href="#DejaVuSans-65" transform="translate(704.236328 0)"/>
     <use xlink:href="#DejaVuSans-72" transform="translate(765.759766 0)"/>
     <use xlink:href="#DejaVuSans-20" transform="translate(806.873047 0)"/>
     <use xlink:href="#DejaVuSans-61" transform="translate(838.660156 0)"/>
     <use xlink:href="#DejaVuSans-75" transform="translate(899.939453 0)"/>
     <use xlink:href="#DejaVuSans-74" transform="translate(963.318359 0)"/>
     <use xlink:href="#DejaVuSans-68" transform="translate(1002.527344 0)"/>
     <use xlink:href="#DejaVuSans-6f" transform="translate(1065.90625 0)"/>
     <use xlink:href="#DejaVuSans-72" transform="translate(1127.087891 0)"/>
     <use xlink:href="#DejaVuSans-69" transform="translate(1168.201172 0)"/>
     <use xlink:href="#DejaVuSans-7a" transform="translate(1195.984375 0)"/>
     <use xlink:href="#DejaVuSans-61" transform="translate(1248.474609 0)"/>
     <use xlink:href="#DejaVuSans-74" transform="translate(1309.753906 0)"/>
     <use xlink:href="#DejaVuSans-69" transform="translate(1348.962891 0)"/>
     <use xlink:href="#DejaVuSans-6f" transform="translate(1376.746094 0)"/>
     <use xlink:href="#DejaVuSans-6e" transform="translate(1437.927734 0)"/>
     <use xlink:href="#DejaVuSans-20" transform="translate(1501.306641 0)"/>
     <use xlink:href="#DejaVuSans-70" transform="translate(1533.09375 0)"/>
     <use xlink:href="#DejaVuSans-69" transform="translate(1596.570312 0)"/>
     <use xlink:href="#DejaVuSans-70" transform="translate(1624.353516 0)"/>
     <use xlink:href="#DejaVuSans-65" transform="translate(1687.830078 0)"/>
     <use xlink:href="#DejaVuSans-6c" transform="translate(1749.353516 0)"/>
     <use xlink:href="#DejaVuSans-69" transform="translate(1777.136719 0)"/>
     <use xlink:href="#DejaVuSans-6e" transform="translate(1804.919922 0)"/>
     <use xlink:href="#DejaVuSans-65" transform="translate(1868.298828 0)"/>
    </g>
   </g>
  </g>
 </g>
 <defs>
  <clipPath id="pc29f4895b8">
   <rect x="7.2" y="35.3575" width="776.16" height="889.2"/>
  </clipPath>
 </defs>
</svg>
